<mxfile host="app.diagrams.net" agent="Mozilla/5.0 (X11; Ubuntu; Linux x86_64; rv:136.0) Gecko/20100101 Firefox/136.0" version="28.1.1">
  <diagram name="PÃ¡gina-1" id="5P4laoBe-mgDFAAMyfBK">
    <mxGraphModel dx="2443" dy="2047" grid="1" gridSize="10" guides="1" tooltips="1" connect="1" arrows="1" fold="1" page="1" pageScale="1" pageWidth="850" pageHeight="1100" background="none" math="0" shadow="0">
      <root>
        <mxCell id="0" />
        <mxCell id="1" parent="0" />
        <mxCell id="rP8gSa3ibuYR4lZSBPFA-1" value="" style="rounded=1;whiteSpace=wrap;html=1;fontFamily=Helvetica;fontSize=11;fontColor=default;labelBackgroundColor=default;arcSize=0;strokeColor=none;" parent="1" vertex="1">
          <mxGeometry x="-20" y="150" width="1200" height="630" as="geometry" />
        </mxCell>
        <mxCell id="rP8gSa3ibuYR4lZSBPFA-2" value="" style="rounded=1;whiteSpace=wrap;html=1;fillColor=none;dashed=1;" parent="1" vertex="1">
          <mxGeometry x="390" y="625.89" width="570" height="140" as="geometry" />
        </mxCell>
        <mxCell id="rP8gSa3ibuYR4lZSBPFA-3" value="" style="rounded=1;whiteSpace=wrap;html=1;fillColor=none;dashed=1;" parent="1" vertex="1">
          <mxGeometry x="350" y="160" width="300" height="140" as="geometry" />
        </mxCell>
        <mxCell id="rP8gSa3ibuYR4lZSBPFA-4" value="" style="rounded=1;whiteSpace=wrap;html=1;fillColor=none;dashed=1;" parent="1" vertex="1">
          <mxGeometry x="-10" y="250" width="160" height="340" as="geometry" />
        </mxCell>
        <mxCell id="rP8gSa3ibuYR4lZSBPFA-5" value="zzzz" style="rounded=1;whiteSpace=wrap;html=1;fillColor=#dae8fc;strokeColor=#6c8ebf;fontStyle=1" parent="1" vertex="1">
          <mxGeometry x="20" y="-130" width="120" height="60" as="geometry" />
        </mxCell>
        <mxCell id="rP8gSa3ibuYR4lZSBPFA-6" value="zzzz" style="rounded=1;whiteSpace=wrap;html=1;fillColor=#ffe6cc;strokeColor=#d79b00;fontStyle=1" parent="1" vertex="1">
          <mxGeometry x="20" y="-60" width="120" height="60" as="geometry" />
        </mxCell>
        <mxCell id="rP8gSa3ibuYR4lZSBPFA-7" value="zzzz" style="rounded=1;whiteSpace=wrap;html=1;fillColor=#e1d5e7;strokeColor=#9673a6;fontStyle=1" parent="1" vertex="1">
          <mxGeometry x="20" y="20" width="120" height="60" as="geometry" />
        </mxCell>
        <mxCell id="rP8gSa3ibuYR4lZSBPFA-8" style="edgeStyle=orthogonalEdgeStyle;rounded=0;orthogonalLoop=1;jettySize=auto;html=1;entryX=0.408;entryY=0.01;entryDx=0;entryDy=0;strokeColor=#7EA6E0;strokeWidth=4;endArrow=none;startFill=0;entryPerimeter=0;" parent="1" source="rP8gSa3ibuYR4lZSBPFA-9" target="rP8gSa3ibuYR4lZSBPFA-18" edge="1">
          <mxGeometry relative="1" as="geometry">
            <Array as="points">
              <mxPoint x="420" y="380" />
              <mxPoint x="330" y="380" />
              <mxPoint x="330" y="421" />
            </Array>
          </mxGeometry>
        </mxCell>
        <mxCell id="-caIupzgePBEDe5vciMs-7" style="edgeStyle=orthogonalEdgeStyle;rounded=0;orthogonalLoop=1;jettySize=auto;html=1;strokeColor=#7EA6E0;endArrow=none;endFill=0;strokeWidth=4;" edge="1" parent="1" source="rP8gSa3ibuYR4lZSBPFA-9" target="-caIupzgePBEDe5vciMs-4">
          <mxGeometry relative="1" as="geometry">
            <Array as="points">
              <mxPoint x="420" y="380" />
              <mxPoint x="1100" y="380" />
            </Array>
          </mxGeometry>
        </mxCell>
        <mxCell id="rP8gSa3ibuYR4lZSBPFA-9" value="Paired-end or single-end reads" style="rounded=1;whiteSpace=wrap;html=1;fillColor=#e1d5e7;strokeColor=#9673a6;fontStyle=1" parent="1" vertex="1">
          <mxGeometry x="360" y="228" width="120" height="60" as="geometry" />
        </mxCell>
        <mxCell id="rP8gSa3ibuYR4lZSBPFA-10" style="edgeStyle=orthogonalEdgeStyle;rounded=0;orthogonalLoop=1;jettySize=auto;html=1;entryX=0.5;entryY=0;entryDx=0;entryDy=0;strokeColor=#FF9999;strokeWidth=4;endArrow=none;startFill=0;" parent="1" source="rP8gSa3ibuYR4lZSBPFA-14" target="rP8gSa3ibuYR4lZSBPFA-29" edge="1">
          <mxGeometry relative="1" as="geometry">
            <Array as="points">
              <mxPoint x="580" y="390" />
              <mxPoint x="660" y="390" />
            </Array>
          </mxGeometry>
        </mxCell>
        <mxCell id="rP8gSa3ibuYR4lZSBPFA-11" style="edgeStyle=orthogonalEdgeStyle;rounded=0;orthogonalLoop=1;jettySize=auto;html=1;entryX=0.5;entryY=0;entryDx=0;entryDy=0;strokeWidth=4;endArrow=none;startFill=0;strokeColor=#FF9999;" parent="1" source="rP8gSa3ibuYR4lZSBPFA-14" target="rP8gSa3ibuYR4lZSBPFA-27" edge="1">
          <mxGeometry relative="1" as="geometry">
            <Array as="points">
              <mxPoint x="580" y="390" />
              <mxPoint x="500" y="390" />
            </Array>
          </mxGeometry>
        </mxCell>
        <mxCell id="rP8gSa3ibuYR4lZSBPFA-12" style="edgeStyle=orthogonalEdgeStyle;rounded=0;orthogonalLoop=1;jettySize=auto;html=1;entryX=0.5;entryY=0;entryDx=0;entryDy=0;strokeColor=light-dark(#ff9999, #ededed);strokeWidth=4;endArrow=none;endFill=0;" parent="1" source="rP8gSa3ibuYR4lZSBPFA-14" target="rP8gSa3ibuYR4lZSBPFA-47" edge="1">
          <mxGeometry relative="1" as="geometry">
            <Array as="points">
              <mxPoint x="580" y="390" />
              <mxPoint x="810" y="390" />
            </Array>
          </mxGeometry>
        </mxCell>
        <mxCell id="rP8gSa3ibuYR4lZSBPFA-13" style="edgeStyle=orthogonalEdgeStyle;rounded=0;orthogonalLoop=1;jettySize=auto;html=1;entryX=0.5;entryY=0;entryDx=0;entryDy=0;strokeWidth=4;endArrow=none;endFill=0;strokeColor=light-dark(#ff9999, #ededed);" parent="1" source="rP8gSa3ibuYR4lZSBPFA-14" target="rP8gSa3ibuYR4lZSBPFA-49" edge="1">
          <mxGeometry relative="1" as="geometry">
            <Array as="points">
              <mxPoint x="580" y="390" />
              <mxPoint x="960" y="390" />
            </Array>
          </mxGeometry>
        </mxCell>
        <mxCell id="-caIupzgePBEDe5vciMs-6" style="edgeStyle=orthogonalEdgeStyle;rounded=0;orthogonalLoop=1;jettySize=auto;html=1;strokeColor=#FF9999;strokeWidth=4;endArrow=none;endFill=0;" edge="1" parent="1" source="rP8gSa3ibuYR4lZSBPFA-14" target="-caIupzgePBEDe5vciMs-4">
          <mxGeometry relative="1" as="geometry">
            <Array as="points">
              <mxPoint x="580" y="390" />
              <mxPoint x="1120" y="390" />
            </Array>
          </mxGeometry>
        </mxCell>
        <mxCell id="rP8gSa3ibuYR4lZSBPFA-14" value="Assembly" style="rounded=1;whiteSpace=wrap;html=1;fillColor=#e1d5e7;strokeColor=#9673a6;fontStyle=1" parent="1" vertex="1">
          <mxGeometry x="520" y="228" width="120" height="60" as="geometry" />
        </mxCell>
        <mxCell id="rP8gSa3ibuYR4lZSBPFA-15" style="edgeStyle=orthogonalEdgeStyle;shape=connector;rounded=0;orthogonalLoop=1;jettySize=auto;html=1;strokeColor=#CDB152;strokeWidth=4;align=center;verticalAlign=middle;fontFamily=Helvetica;fontSize=11;fontColor=default;labelBackgroundColor=default;startFill=0;endArrow=none;" parent="1" source="rP8gSa3ibuYR4lZSBPFA-16" target="rP8gSa3ibuYR4lZSBPFA-29" edge="1">
          <mxGeometry relative="1" as="geometry">
            <Array as="points">
              <mxPoint x="670" y="330" />
            </Array>
          </mxGeometry>
        </mxCell>
        <mxCell id="rP8gSa3ibuYR4lZSBPFA-16" value="PAO1 Genome" style="rounded=1;whiteSpace=wrap;html=1;fillColor=#e1d5e7;strokeColor=#9673a6;fontStyle=1" parent="1" vertex="1">
          <mxGeometry x="10" y="300" width="120" height="60" as="geometry" />
        </mxCell>
        <mxCell id="rP8gSa3ibuYR4lZSBPFA-17" value="" style="edgeStyle=orthogonalEdgeStyle;shape=connector;rounded=0;orthogonalLoop=1;jettySize=auto;html=1;strokeColor=#3F6B63;strokeWidth=4;align=center;verticalAlign=middle;fontFamily=Helvetica;fontSize=11;fontColor=default;labelBackgroundColor=default;startFill=0;endArrow=none;" parent="1" source="rP8gSa3ibuYR4lZSBPFA-18" target="rP8gSa3ibuYR4lZSBPFA-34" edge="1">
          <mxGeometry relative="1" as="geometry" />
        </mxCell>
        <mxCell id="rP8gSa3ibuYR4lZSBPFA-18" value="&lt;div&gt;PAO1&lt;/div&gt;&lt;div&gt;Variant calling&lt;/div&gt;" style="rounded=1;whiteSpace=wrap;html=1;fillColor=#dae8fc;strokeColor=#6c8ebf;fontStyle=1" parent="1" vertex="1">
          <mxGeometry x="280" y="420" width="120" height="60" as="geometry" />
        </mxCell>
        <mxCell id="rP8gSa3ibuYR4lZSBPFA-19" style="edgeStyle=orthogonalEdgeStyle;shape=connector;rounded=0;orthogonalLoop=1;jettySize=auto;html=1;entryX=0;entryY=0.5;entryDx=0;entryDy=0;strokeColor=#99FF99;strokeWidth=4;align=center;verticalAlign=middle;fontFamily=Helvetica;fontSize=11;fontColor=default;labelBackgroundColor=default;startFill=0;endArrow=none;" parent="1" source="rP8gSa3ibuYR4lZSBPFA-20" target="rP8gSa3ibuYR4lZSBPFA-34" edge="1">
          <mxGeometry relative="1" as="geometry">
            <Array as="points">
              <mxPoint x="220" y="540" />
              <mxPoint x="220" y="557" />
            </Array>
          </mxGeometry>
        </mxCell>
        <mxCell id="rP8gSa3ibuYR4lZSBPFA-20" value="PAO1 Genes related to antibiotic resistance" style="rounded=1;whiteSpace=wrap;html=1;fillColor=#e1d5e7;strokeColor=#9673a6;fontStyle=1" parent="1" vertex="1">
          <mxGeometry x="10" y="510" width="120" height="60" as="geometry" />
        </mxCell>
        <mxCell id="rP8gSa3ibuYR4lZSBPFA-21" style="edgeStyle=orthogonalEdgeStyle;shape=connector;rounded=0;orthogonalLoop=1;jettySize=auto;html=1;strokeColor=#FFB570;strokeWidth=4;align=center;verticalAlign=middle;fontFamily=Helvetica;fontSize=11;fontColor=default;labelBackgroundColor=default;startFill=0;endArrow=none;" parent="1" source="rP8gSa3ibuYR4lZSBPFA-22" target="rP8gSa3ibuYR4lZSBPFA-27" edge="1">
          <mxGeometry relative="1" as="geometry">
            <Array as="points">
              <mxPoint x="480" y="400" />
            </Array>
          </mxGeometry>
        </mxCell>
        <mxCell id="rP8gSa3ibuYR4lZSBPFA-22" value="oprD distant variants" style="rounded=1;whiteSpace=wrap;html=1;fillColor=#e1d5e7;strokeColor=#9673a6;fontStyle=1" parent="1" vertex="1">
          <mxGeometry x="10" y="370" width="120" height="60" as="geometry" />
        </mxCell>
        <mxCell id="rP8gSa3ibuYR4lZSBPFA-23" style="edgeStyle=orthogonalEdgeStyle;shape=connector;rounded=0;orthogonalLoop=1;jettySize=auto;html=1;strokeColor=#9999FF;strokeWidth=4;align=center;verticalAlign=middle;fontFamily=Helvetica;fontSize=11;fontColor=default;labelBackgroundColor=default;startFill=0;endArrow=none;" parent="1" source="rP8gSa3ibuYR4lZSBPFA-24" target="rP8gSa3ibuYR4lZSBPFA-34" edge="1">
          <mxGeometry relative="1" as="geometry">
            <Array as="points">
              <mxPoint x="230" y="470" />
              <mxPoint x="230" y="550" />
            </Array>
          </mxGeometry>
        </mxCell>
        <mxCell id="rP8gSa3ibuYR4lZSBPFA-24" value="Polymorphisms per gene" style="rounded=1;whiteSpace=wrap;html=1;fillColor=#e1d5e7;strokeColor=#9673a6;fontStyle=1" parent="1" vertex="1">
          <mxGeometry x="10" y="440" width="120" height="60" as="geometry" />
        </mxCell>
        <mxCell id="rP8gSa3ibuYR4lZSBPFA-25" value="Database" style="text;html=1;align=center;verticalAlign=middle;whiteSpace=wrap;rounded=0;fontStyle=1;fontSize=20;" parent="1" vertex="1">
          <mxGeometry x="40" y="260" width="60" height="30" as="geometry" />
        </mxCell>
        <mxCell id="rP8gSa3ibuYR4lZSBPFA-26" style="edgeStyle=orthogonalEdgeStyle;shape=connector;rounded=0;orthogonalLoop=1;jettySize=auto;html=1;entryX=0.5;entryY=0;entryDx=0;entryDy=0;strokeColor=#3F6B63;strokeWidth=4;align=center;verticalAlign=middle;fontFamily=Helvetica;fontSize=11;fontColor=default;labelBackgroundColor=default;startFill=0;endArrow=none;" parent="1" source="rP8gSa3ibuYR4lZSBPFA-27" target="rP8gSa3ibuYR4lZSBPFA-34" edge="1">
          <mxGeometry relative="1" as="geometry" />
        </mxCell>
        <mxCell id="rP8gSa3ibuYR4lZSBPFA-27" value="&lt;div&gt;Closest oprD&amp;nbsp;&lt;/div&gt;&lt;div&gt;variant calling&lt;/div&gt;" style="rounded=1;whiteSpace=wrap;html=1;fillColor=#dae8fc;strokeColor=#6c8ebf;fontStyle=1" parent="1" vertex="1">
          <mxGeometry x="440" y="420" width="120" height="60" as="geometry" />
        </mxCell>
        <mxCell id="rP8gSa3ibuYR4lZSBPFA-28" style="edgeStyle=orthogonalEdgeStyle;shape=connector;rounded=0;orthogonalLoop=1;jettySize=auto;html=1;entryX=0.5;entryY=0;entryDx=0;entryDy=0;strokeColor=#3F6B63;strokeWidth=4;align=center;verticalAlign=middle;fontFamily=Helvetica;fontSize=11;fontColor=default;labelBackgroundColor=default;startFill=0;endArrow=none;" parent="1" source="rP8gSa3ibuYR4lZSBPFA-29" target="rP8gSa3ibuYR4lZSBPFA-35" edge="1">
          <mxGeometry relative="1" as="geometry">
            <Array as="points">
              <mxPoint x="660" y="610" />
              <mxPoint x="540" y="610" />
            </Array>
          </mxGeometry>
        </mxCell>
        <mxCell id="rP8gSa3ibuYR4lZSBPFA-29" value="Gene truncations and reordenations" style="rounded=1;whiteSpace=wrap;html=1;fillColor=#dae8fc;strokeColor=#6c8ebf;fontStyle=1" parent="1" vertex="1">
          <mxGeometry x="600" y="420" width="120" height="60" as="geometry" />
        </mxCell>
        <mxCell id="rP8gSa3ibuYR4lZSBPFA-30" style="edgeStyle=orthogonalEdgeStyle;rounded=0;orthogonalLoop=1;jettySize=auto;html=1;strokeColor=#CDB152;strokeWidth=4;endArrow=none;startFill=0;" parent="1" source="rP8gSa3ibuYR4lZSBPFA-16" target="rP8gSa3ibuYR4lZSBPFA-18" edge="1">
          <mxGeometry relative="1" as="geometry">
            <Array as="points">
              <mxPoint x="320" y="340" />
            </Array>
          </mxGeometry>
        </mxCell>
        <mxCell id="rP8gSa3ibuYR4lZSBPFA-31" style="edgeStyle=orthogonalEdgeStyle;rounded=0;orthogonalLoop=1;jettySize=auto;html=1;strokeColor=#7EA6E0;strokeWidth=4;endArrow=none;startFill=0;" parent="1" source="rP8gSa3ibuYR4lZSBPFA-9" target="rP8gSa3ibuYR4lZSBPFA-27" edge="1">
          <mxGeometry relative="1" as="geometry">
            <Array as="points">
              <mxPoint x="420" y="380" />
              <mxPoint x="490" y="380" />
            </Array>
          </mxGeometry>
        </mxCell>
        <mxCell id="rP8gSa3ibuYR4lZSBPFA-32" style="edgeStyle=orthogonalEdgeStyle;rounded=0;orthogonalLoop=1;jettySize=auto;html=1;entryX=0.5;entryY=0;entryDx=0;entryDy=0;strokeWidth=4;endArrow=none;startFill=0;strokeColor=#FF9999;" parent="1" source="rP8gSa3ibuYR4lZSBPFA-14" target="rP8gSa3ibuYR4lZSBPFA-18" edge="1">
          <mxGeometry relative="1" as="geometry">
            <Array as="points">
              <mxPoint x="580" y="390" />
              <mxPoint x="340" y="390" />
            </Array>
          </mxGeometry>
        </mxCell>
        <mxCell id="rP8gSa3ibuYR4lZSBPFA-33" style="edgeStyle=orthogonalEdgeStyle;shape=connector;rounded=0;orthogonalLoop=1;jettySize=auto;html=1;entryX=0.5;entryY=0;entryDx=0;entryDy=0;strokeColor=#3F6B63;strokeWidth=4;align=center;verticalAlign=middle;fontFamily=Helvetica;fontSize=11;fontColor=default;labelBackgroundColor=default;startFill=0;endArrow=none;" parent="1" source="rP8gSa3ibuYR4lZSBPFA-34" target="rP8gSa3ibuYR4lZSBPFA-35" edge="1">
          <mxGeometry relative="1" as="geometry">
            <Array as="points">
              <mxPoint x="420" y="610" />
              <mxPoint x="540" y="610" />
            </Array>
          </mxGeometry>
        </mxCell>
        <mxCell id="rP8gSa3ibuYR4lZSBPFA-34" value="Filter variants" style="rounded=1;whiteSpace=wrap;html=1;fillColor=#dae8fc;strokeColor=#6c8ebf;fontStyle=1" parent="1" vertex="1">
          <mxGeometry x="360" y="527" width="120" height="60" as="geometry" />
        </mxCell>
        <mxCell id="rP8gSa3ibuYR4lZSBPFA-35" value="Merged results" style="rounded=1;whiteSpace=wrap;html=1;fillColor=#d5e8d4;strokeColor=#82b366;fontStyle=1" parent="1" vertex="1">
          <mxGeometry x="480" y="661" width="120" height="60" as="geometry" />
        </mxCell>
        <mxCell id="rP8gSa3ibuYR4lZSBPFA-36" value="" style="edgeStyle=orthogonalEdgeStyle;shape=connector;rounded=0;orthogonalLoop=1;jettySize=auto;html=1;strokeColor=#3F6B63;strokeWidth=4;align=center;verticalAlign=middle;fontFamily=Helvetica;fontSize=11;fontColor=default;labelBackgroundColor=default;startFill=0;endArrow=none;" parent="1" source="rP8gSa3ibuYR4lZSBPFA-37" target="rP8gSa3ibuYR4lZSBPFA-39" edge="1">
          <mxGeometry relative="1" as="geometry" />
        </mxCell>
        <mxCell id="rP8gSa3ibuYR4lZSBPFA-37" value="&lt;div&gt;snippy&lt;/div&gt;&lt;div&gt;&lt;span style=&quot;font-weight: normal;&quot;&gt;(.fastq or .fasta)&lt;/span&gt;&lt;/div&gt;" style="rounded=1;whiteSpace=wrap;html=1;fillColor=#dae8fc;strokeColor=#6c8ebf;fontStyle=1" parent="1" vertex="1">
          <mxGeometry x="180" y="-130" width="120" height="60" as="geometry" />
        </mxCell>
        <mxCell id="rP8gSa3ibuYR4lZSBPFA-38" value="" style="edgeStyle=orthogonalEdgeStyle;shape=connector;rounded=0;orthogonalLoop=1;jettySize=auto;html=1;strokeColor=#3F6B63;strokeWidth=4;align=center;verticalAlign=middle;fontFamily=Helvetica;fontSize=11;fontColor=default;labelBackgroundColor=default;startFill=0;endArrow=none;" parent="1" source="rP8gSa3ibuYR4lZSBPFA-39" target="rP8gSa3ibuYR4lZSBPFA-40" edge="1">
          <mxGeometry relative="1" as="geometry" />
        </mxCell>
        <mxCell id="rP8gSa3ibuYR4lZSBPFA-39" value="Mixed variants" style="rounded=1;whiteSpace=wrap;html=1;fillColor=#dae8fc;strokeColor=#6c8ebf;fontStyle=1" parent="1" vertex="1">
          <mxGeometry x="180" y="-40" width="120" height="60" as="geometry" />
        </mxCell>
        <mxCell id="rP8gSa3ibuYR4lZSBPFA-40" value="Missing features" style="rounded=1;whiteSpace=wrap;html=1;fillColor=#dae8fc;strokeColor=#6c8ebf;fontStyle=1" parent="1" vertex="1">
          <mxGeometry x="180" y="50" width="120" height="60" as="geometry" />
        </mxCell>
        <mxCell id="rP8gSa3ibuYR4lZSBPFA-41" value="Input" style="text;html=1;align=center;verticalAlign=middle;whiteSpace=wrap;rounded=0;fontStyle=1;fontSize=20;" parent="1" vertex="1">
          <mxGeometry x="470" y="170" width="60" height="30" as="geometry" />
        </mxCell>
        <mxCell id="rP8gSa3ibuYR4lZSBPFA-42" value="&lt;font style=&quot;font-size: 13px;&quot;&gt;Accepts both types or one of them per sample&lt;/font&gt;" style="text;html=1;align=center;verticalAlign=middle;whiteSpace=wrap;rounded=0;fontStyle=0;fontSize=20;" parent="1" vertex="1">
          <mxGeometry x="360" y="196" width="290" height="20" as="geometry" />
        </mxCell>
        <mxCell id="rP8gSa3ibuYR4lZSBPFA-43" value="&lt;font style=&quot;font-size: 13px;&quot;&gt;Includes &lt;b&gt;non-synonymous mutations&lt;/b&gt; in &lt;b&gt;genes related to antibiotic resistance&lt;/b&gt;, &lt;b&gt;mixed variants&lt;/b&gt;, &lt;b&gt;missing features&lt;/b&gt;, possible &lt;b&gt;polymorphisms&lt;/b&gt;. If assembly is given, it also includes &lt;b&gt;MLST, acquired resistance genes &lt;/b&gt;and big &lt;b&gt;truncations / reordenations&lt;/b&gt;.&lt;/font&gt;" style="text;html=1;align=left;verticalAlign=middle;whiteSpace=wrap;rounded=0;fontStyle=0;fontSize=20;" parent="1" vertex="1">
          <mxGeometry x="610" y="638.89" width="340" height="120" as="geometry" />
        </mxCell>
        <mxCell id="rP8gSa3ibuYR4lZSBPFA-44" value="Output" style="text;html=1;align=center;verticalAlign=middle;whiteSpace=wrap;rounded=0;fontStyle=1;fontSize=20;" parent="1" vertex="1">
          <mxGeometry x="406" y="683.89" width="60" height="30" as="geometry" />
        </mxCell>
        <mxCell id="rP8gSa3ibuYR4lZSBPFA-45" value="" style="shape=image;verticalLabelPosition=bottom;labelBackgroundColor=default;verticalAlign=top;aspect=fixed;imageAspect=0;image=data:image/png,iVBORw0KGgoAAAANSUhEUgAAAsEAAAC9CAYAAABSzqDnAAAP+npUWHRSYXcgcHJvZmlsZSB0eXBlIGV4aWYAAHjarZltkuQ4jkT/6xR7BJIgAPI4/DSbG8zx90EZVV1Z3bvTMzYVlhmRCkkEAYe7Q/Wcf/7jPv/DP+mpPVW9WTdL/Ku99jL40NLXv/7+zqm+v99/K6fyOfrt+DP356LCIeFdvv708fWeB8f1jwt+rJHn9+NP+3xT2udGny9+3FBi5Yhh/xokx8vX8Vw/N+rn64P15r+GOstnK58T31A+P+t8bS9/Fou/n18PVCdLWzlLSjnC4fd3+4pA4kdl8O78LtI4L4vxOUt/eKuSP5GQkG/b+/Ge0q8J+pbkH5+e37Nf618nv4zPGfJbLu2TIz785RdZ/zr5b4p/WVh+RlS+f0F1zp+28/m5d7d7z9fuRjUyah9EpedHduIaTpxsTt7LjJfzo3z299V5tTTAZGW5lSavlXsuVOU+ueadR775vO8rL0Ks5RTnvZRV5D3WxEsvS6JONV75FpcuWxr1W+U8IhwuP2PJ77r9XW/lxso7c2rJ3Cxzyf/5ev6/L/+d13PvihTlSCalz18FLoFcwojKxW/OoiD5fuqmb4J/vD7lT78AC6hSQX3T3NjgSPPrFlPzH9iSt87Cecr7F+7y4/tzAwJibSWYLFQgWRbNlpOX4jmTx0aBBpEXqWVSgaxaNkGWKmLl8ULLsDbXeH7PLVqsxGG4iUIo3eTUpsugWLUq+PHawNBQ0aqqpq7t0a7DxKqpmbkFyQ0Xr65u7t68+2jSatNmzVtrvY1eusCB2q17b733McozWGhwr8H5gyOzTJl16rTps80+xwI+qy5dtny11dfYZcuGJrZt3233PU5+Dkxx6tFjx087/YwL1q7cevXa9dtuv+Nn1T5V/dPr36ha/lStvJWK8/xn1Tj6uP+4RQ460agZFSs1U3GPCgDoEjVLLddaonJRs9QLTaGFIDVq8+wcFaOE9eSiN/+s3R+V+1t1e7T9rbqVf1W5J0r336jcQ+n+XLe/qNoOnVtvxb66MHKahO7j+9MGVeP+6Uw9XJi4FZmau9Mj3PAUmU70N91100Yu1qg1GMry3nPPkY7MLXWcp9iGmAhcbvT28VW5vrYh/SzCkrzHuxX2JbZqYUPuRU4rkzulu/st5yjJ3uOKss16aqQt6eyWzyH2IlcWMRJttm0rkfQafcyKY7Yv6oeM9Zbx1Oo0r7e8r591tsudy7ZcPW0B8jnbOSUt6n/OGr6dGA7WYINHQr9N5ynzPmnpXJ1Su6Xis7ZFzimVGrvS6qOfVtOFTOaZpykkfhR1t7FlKTmbq0FA4+lupeu6LZc27ogE2UUbpm4Q269GCVYi4aP7Zg2vt5v0C4wK0Pcotef7tO1rjxo4h7NSO6nJHuAqblzG2pFDMGJl1Gg+xCzXTYk2GjFB5AbPbewHECxr8x4f/OqwHgeSviiVbFpQNOFuOocWyrwan9t0q0oftTEz3QAUHzup2qLDF5YCnWaJ3XMsGGuBtP3bUtWvSdUAi2zeKsnabT1rIWncxkYhLZd12t17UaV7dmJr/exTp/nuYXU2m282jBUDTnQ0zLAbyGbJNPFxFPdElJ3mT8EAanlWa+jipvcovee+ottHdFjqbHA4bS4bqcjtgR5qtD1ko5R0Htq6gP3aLtaKXhW+4e+NUtDCrERxoB2H2GaPbcEmoO+RawTEJlfszdjcaIeup0S0eQj3SRDSuXU1NslOVYkaxFCFM6tP0PNy9oa1Zu6d7ADTIVLWgNiumrSx1k6mWafgaHZ2eleBNrmZfZceQXrPeQcfVQOmU529QzRqwCitEZUtMzzjBqNQdxMybaKti665sefwFY1Wovt62o/gZZH2Rrb9DFpC0d7T5jw1zTNs0nGQ6KgrvlqyYTSTIB92f43gW2GhyBEkTtUhm5vGGXqhozLrmW0T9+D3wirltSxfx1EN+q3n26DGDKs2hAJCptdme22jjATbLkBLFw+cHezhWlvLpIeEab4dwI6bFjdYlcJN77AWWd35yOMJSgtsCDxU+3C4CmYvHRrwzT6jV+izUfaKJkE80rtJ+CRDg3lxjY35JG89glRLcxsMBb0qJF80xgX6g1awBtUu9+CnWjcm8GZ275ULTg782EDXzsVPJhygriPp9EsioJy7rOvEYV6NgsG1G8ez0SqDb7vDnTvBGQV68TQwEaXC/qSZQuKDyApbaUttcj5plIKq0CTseNzYeN/G1kn/wfJxWV8XzXsmZJLvua0E2lATAVITXSOPEIDUhVSNa/0Vh3zJ6CafSTcJz5PypxvnPJFNfvweuc3vDORQQO7QzupzrjzF0UxqREaAKuyYF0WHW+AG3lH8KxWqpea4OwwI3yttcVgGt0dgjpoivTKRh563YVZXkGmQCfceHVNRJx6BM5/ILaSibVU8dYcsJuuKvJgTV+Bf3aRYvftALJhMwiAfyPzFPeIm+jRdD3jpJ6NetJYXJK1hOXINKEH84I3QFcvOZoiDvXgtIBWSxJFNcOuIMUr8dPGG7CKopDFW4uy1Wc7IGbhWXMVa2kkZt5qHYoArBJMeogIzJA/hmQ/kTszordZ7wRzi+JmOSQZMw11Xxb+deb29DG1IyrlGhiHV6nkH992H0+EzrsBNZXRjrjgPPFLs5b1C3YdTlerTG2tGadn6nTnOgEb5e+9hD6bo3gLMYqOhXm9T8LHWcCOEGOoRDq2574UUR3wouii0Pe/AWwRpPlR30xuHrL3xYJBG0Aig5BrD3viI1B1z8JJ6DyLJd+yKGapmc5wLgcmD/6Fx+hGBnW9GxBiroe1wbK1NW6hBywxqi6vh3vDUgKRb3bRhoueqihwiCuPh2BWMlPVN+xr7b3GXivst8ADrWTtKsLgJgHSR36l6AmZQ8+bibI9bUJ0DWKMikJdAMFeCLi+iJhMT4SQTcaudYiV8K2fNjqGCY5vhCTGKIDthzYRs65h0xoLAGYVevFSoCrV5Rb60i9HKyHiCLEKREEvDjaLtYPnsJ+xKzFWTDyB90hroZyMul8MwGg5m2RRTRl5Y6The0nXtjUI40Wykh/Z4QhKNdr0rvFRHmG4wErnOJVwBKOMrQHmBfLvQF/uhseEXaPIwGc1FFPMJz5UCXUQwj0ETMErvq9MOGKiqlAh7DLALG6vz6zMqSmdIAknV2CrWr7WCB1+VkRsPIrjquZeBMXybhP1CjlQ9uLIGv4Em5omAJGoB+QOstwueFtBBAAk35wF9eqNdXNEawVNAhH4YL/B3rAJSMlhSrBomZhzpMRtgEzuA7DM6qkCiZNYpXq7BIHCD3h18hwaRsVg1DmDfEnkFZsPYLPm/BdeJq014NsNRnzuYirR3zO4GbRyi4+hl/BMmkrziN2C32L8x41iP1n7xOaD1h8IAyFBwatXh9XxwflexP/RyjWtJ4Ga7OwmjtU+mp8sllQgQArRcEvd80mTnzDeXEQRJDGMO9EjEQP+YxWguRkCK2C63LeihMOwJZjTjS+ZVRh7GE4gNj9UgCuCNp+UidBlHDJ4hKdqb4WV1+LMi0mC9xCMLpOVQeKP9k0R707cPEr+AzKko+1q9oDIVINM/BM32EAk4B2tfv6iOxN2gzx3QrXIwqThmOQ9eN9LKBPRd3OAK25oRogZ+cBcSU2EJvMNNDJJQN2sBigzny3ocesMNOSbthAfCnrN/fHZIH4aE+SihsuGouTLolMkoxjsYgfnXoKt0ANSTwzYz3UyPw2MR/ix4DyBHyeEhiglvGNMNsxPuo3uBRswyrKLp7BvbwUSgiqXADo7+FI/xZLyQR2H6CedbuBEQuVnASxQt4NQuNEEv20BEwC/z2sJdhQ10z5SuJqw6s1uZ/EGHaVgIQzxCqmkaLKxhUa8vIE++maThRWw6oyiWhPRGiys8zLVRdpR0jBZQDRv8d8Tp+a5Ov4sTdjSMDNuAOxo+QWinkGLMoNFJjX7CnWoYrRzTAMPCzD+0KySnQrmI9X7tU8ZnMWQe9Y7ZYDNpTtbKgQYIlRnPz0NHo8GY2SnhRQAt0z0zbXjoGWMKvgMWEmZKtowzRUNtKEFP2hASouICIB66Y8x4ClMDCIgD3f9N4iDshU9eiNgt8LaEbZ/MmBo4YuoB5dMgf1dgEWVj9gDTmxEYSod8R/hsxuEgY6CBujUJpWJvZ+eYwgFCgmaAWJEHWs0hfs0LRkYjMGYABjAazCCtAxngBOuMOZkSsvzCvVQsUz2rQJ8Lb4dAAoxOmiGXHXac+RFPiiwUVHVAbzUGXarEPGLlysjxiIMipqgM+SHFyFVLDwaKIIxcO+QlqP3GeqMyDs5RJTgmHnH08PlkmjZkTEDYO5yyX9VttGu9j8TThIyRN2hnRbPDAgyCEn65IHUwG7mlBAZg0ULM26n4ztXomQHE+Qq8PSgs6okoXWw6k+qcm45qOOoG+8MJGToZFLTFACYcwgMZDCNM5pMupzcX5PsMrCwzWb4FCumCXByu5ubFN1Mcw16MS5hdUPF2UAlEYNbDaDIjY2qrmPsjQTskKr/9BOuBWAQxHtCwz8H0UQAdzXoqFuNMxgECiAkpLZoJFxDfrvYcaMb7pgjxPAPQ9xIzF+TmGk+94+FDzCn4cCw2XPMOKnh2LUexAVQ9wL4eJkzUCdGA2nTHPBJj44jhE5yiU4t+Wkx7Ci4ZCCZySOeMeFARLuOceEbBKPo6L5gJdHj4MsYGgg9nTlzMDXA1Iy4xNJw6UxLfDHcyZBrDIhx34uleeeBmqGEyp+3J/mgMLb8GZ2HX8NSoEcwzsSAZzOG/Bx4AmK3B7ivaj0tAjGkAxvIQkXiER49/26jGQzP2OBkVTWICZGcaoIr12S8hPkHvwcM9jwSW8eqORrDmGhhI+NPoHAZLrOmrbIwOI977OQg/PBoPmdj5U9pkooDDYVZKrFACHIotlbJjomzxwAvbisweVP8tQov/wqD1JChV2GXd+pwTAt2hmo6Tx72ZMmXBih1fGd0KMS4mT/wnZBPqRE7wm6c1SHzB3ZvBjhbR3Q7EP6kjTgOZuPGUER8BfzL8qsfDDXqCAebg2dRCF+rvkwhT9m9kn6lZiW5I8cQ2KUOaMQvXaFutmOQypWCIcfcgCExi7stAMh9Wo2zMWl3NSCEzCcQYYd0uaFhtCfy+YjgTxolqcEPyiyYfNGqLvasAyPD0fDG3M9GRClwNLv598nCQuz/Aq68Zb7rwVA2NjIvmjIeQsOmDb4XDML5oCNpL+chCOfQFU0MDaXeCQbz3fV3kVs2+g1GFHr20IeVjxDF6rbfYaegn1AwuNLNvOALCICZUT+OpWUyUWGUsJB65hBgxo1NZSilUJz/xP2cjOsM6kyrEgd0NsDSoYUFLTYMkcIQr7gcljd2gEfBtTC1wUHA5mXx2jYQw54Wc7DCQkOLrzzENMA3aiI2KSSkhWUyvJx55MWbFbS1CLPF0rz3BoSUe4bfyfoj/+v1P3p9/fSKK0xkR/hdZpxi8HPgLBAAAAYRpQ0NQSUNDIHByb2ZpbGUAAHicfZE9SMNAHMVfU6UiVUE7iHTIUJ0siIroplUoQoVQK7TqYHLpFzRpSFJcHAXXgoMfi1UHF2ddHVwFQfADxF1wUnSREv+XFlrEeHDcj3f3HnfvAKFWYprVMQZoum0m4zExnVkVA68IIIxe9GNGZpYxJ0kJeI6ve/j4ehflWd7n/hw9atZigE8knmWGaRNvEE9t2gbnfeIQK8gq8TnxqEkXJH7kutLgN855lwWeGTJTyXniELGYb2OljVnB1IgniSOqplO+kG6wynmLs1aqsOY9+QuDWX1lmes0w4hjEUuQIEJBBUWUYCNKq06KhSTtxzz8Q65fIpdCriIYORZQhgbZ9YP/we9urdzEeCMpGAM6XxznYxgI7AL1quN8HztO/QTwPwNXestfrgHTn6RXW1rkCOjbBi6uW5qyB1zuAINPhmzKruSnKeRywPsZfVMGGLgFutcavTX3cfoApKirxA1wcAiM5Cl73ePdXe29/Xum2d8PrIpyvsl9evcAAAAGYktHRAD/AP8A/6C9p5MAAAAJcEhZcwAADsMAAA7DAcdvqGQAAAAHdElNRQfpBxwOEyl8syApAAAgAElEQVR42uy9eZglV3nm+X4n4m6ZeXOpzNr3KlVJKkklCUkggSwQW0OPwRhwN9h+vGAzHrdnvDz2PPa0H9ttt5dpb238MN7ocWNMu7EHjG0WSxgEwgK0C6GtCqk21b7kvtwt4nzzR5xz4kTcuJlVWlBl5vdCqnKJGzfixL03fvHFe94PEIlEIpFIJBKJRCKRSCQSiUQikUgkEolEIpFIJBKJRCKRSCQSiUQikUgkEolEIpFIJBKJRCKRSCQSiUQikUgkEolEIpFIJBKJRCKRSCQSiUQikUgkEolEIpFIJBKJRCKRSCQSiUQikUgkeklEMgQvj5g5P76cGXiSoReJRCKRSCQSCF4m+umf/ml86EMfovl2vO3UhcntIOyOmTbrWK+DonVg2hBpXQZQCRSNEFGdQVprPQWgTURRQNQOAupozceYcS4I1ImA4rOVcuXoupGBU2XgCBGxjLZIJBKJRCKRQPB3XMxM5+ca6ydn5m5tx7yfQTdEsd7GTNdGsS4ziMz/kzovMcCm5MsEkP2Hkj+bLwa73/mkS8wgYlTCcA7gp8IgOBwGeKas6LGRwb5v1KvlyZBIy5ERiUQikUgkEgh+SaH38NkLO+cWOm+MgDsAujXS2M0glRkxTXDc64MsWQJOh5WJLA9DGVD2oZhZJ98TEKoAROZvRNCsoTWDwVBgHSh1XCk8qpi/MDxQu3f9mvrBikCxSCQSiUQikUDwper09Hx9fHr2TZHGO2PNd0QaOxPo1UkZFwn/co8Bo9zf2CztIJeSNZRCQikIUAoChIoQKkKgFIJAgUglj2TOU7UBYoZmQsyMWMeINEPHMQM4Cua7lY7vGh2uf3WkvzopXmORSCQSiUQigeAu/cRP/AR+8/f/6/Cp81PfEzG9M2a8lYkG3EAwwFAAc8LAfPGDyEjsDIoY1XIZlTBAOQxQDlRS/TU2X/Komk2RmdiYI7wSM7sfGEyBKzQTGHnW1ZrnlcI9IfCJerXy2Q9/+EMzv/ALvyCvcJFIJBKJRKLVDMHNdhQcOn3hjlbMPxwzvSfWGDD0mfzjSJbATLDz0pi7h4g9WwMZmg0CoK8colYuoVIKkJ/Wxt7PRJaBjU8ClEBw4o9I4JeyBJ7ALxk3sXYHLrFPeMYMBhNhngifCRR9bKhauadUCtryUheJRCKRSCRaJRDMzHj2zIVN883OB2KNH4mZdsEWXb36rT8KlBuSLgi2vAmGUsBApYT+cgnlMMisi7l7oNl/BlvpTc3B5q9sqsNmRcQmbo0KrBiUeazbPNJuIwk4pIg/UgqCjw33V8+IXUIkEolEIpFohULwLDOdPj1+60Ir+qm25nczUw3Zeim6nQ6cGQ5Kox3SxAfz30qoUK+VUSuXoPxqLfUYYjbGBiZTeaZMSkQCz5TCrAFVdpVi9LBlFPs1itLVCJhXoL8JA3xoZKD2lMCwSCQSiUQigeAVoo7W6tCpC29Z6MS/GGt6vTaz2lxoQwFN9rb8qlyRmNFXCTFYLaMcBNDE6d9sNTYDlh5QczFogzj1RjjY9X6wAJ76J7w1pyjfNWlvsaPK6Ciiu8qKfmdooHq/UpJHLBKJRCKRSCB4WYqZ6cDJ829qdvSvt2O+zbZjoxzl+tVcvxKq2caWeThpZsURGP3lEEN9VYQBuapwwqV58EXm8Wm1lwFFORg3izF3d48riKIo3pfcctz7iHIO6AmIFKm7Swq/OlyvPSqVYZFIJBKJRALBywd+8eyZiZvmW50/6MS4g3P7Q1naRFo1pSy75uwONpWhVgox3Fcx6Q5Z+GTKQ6ebqgZidikO7m/GCcGcAHHP0c/McTNJEEASp6YoUzDWYERag4tWlvd8ELliNWU9xJEifKIc0q8O99eOCAyLRCKRSCQSCL6MdfjsxLqZRufX27H+IIOCYkpOC7W9HAkpBKfT1gJFGO6roq8SAjqBZ0UK2uJxD+8v5WbDpQ4J8uy+5htlLQ7sIDndtuSHUBH6yyHKpQAqb5vwpJkRxTE6sUYnZrQj7e2vMU8Qg/wNZ/snG7fGcwHwXyuh+t2hgb45eWuIRCKRSCQSCL6MNN9qB0fOTn6wFeHXY8Y6RuEksC5etNVdchm81its662JJWKwVsJQrWoe4VkkcpXjbpC2K6bCiWmZjfPJnLnwb9VQYbCvcgkHKN0oZqAdRWhFGs1OBOteTirU2eYfrjpsrRngZ5Win18z2PfZEolfWCQSiUQi0cqUWi4b+p73vAdPHT99zcGT419ZiPCnMXgdFmE0YguZOauDgT33vVm4EihsGOrDUK1iVpsDYEZPry6Z/yV/1+n6fcblHK8WXYZwelDqtYpnsOCuGXwJuJL7ypg/CKiUQtRrJYzVaxishCgp8nibDainTTfY7bPaE2v84/j0wicnZhrb5C0iEolEIpFoJWpZVILHZ5qVExNTv9iK8X8xUzUtpL6QQmUKqAQCM2OwWsZwreKAkADonqPjGW0dI3sNk3vNlctQc9aWkDTIMJVnIlRLAYb7yg5ou0vP1HPfmHvtM6EVRWg0I7RiP8+YemwiA6CJgPBLo/XqXyqlYnm7iEQikUgkEgj+Dung6fP755v6I5HGLVzgxr3IzsbItqtIvlMA1gxUUSuF3aBJFztk1mvrTTZj00kuv6iinlzOrBOYVoRKqDDcVzEQ/MIOEXPvUelEMWZbbXTiHvtnvSKJtAI+Wympnxzur52St4xIJBKJRCKB4JdRzExPHT//wUYn/iMG1Xix/K8XsNOlIMBYvYqQ0tTdxaPGyOt3rLN/4UVQnAlMOpmkp8ib+JbZWbBmkEqsDYFSGB2o4qUIaiiG4eR3zU6M2WYEzdq17eg1AAo4XwrUB0YGqp8j8QqLRCKRSCQSCH7p9fz41MjkXOu/tWL6XmadYCOlvlWiXrf9i3Yv140NQF8lwJq+mokLKwBgy7zsJUGQyrU4ZoeHlPk52/itsIeG9wtmArFOD4b522i9iiCggmbJLyEME8CaMd/qYL4dFb8csjwcBUR/MNgX/mq1VG7L20ckEolEIpFA8Eukb588t3+2zf9fzLQ3mWTWTWKXDIDexLLBWhnDfVUUVm65e2Dcr3Ig7ecD00UQuW2KwRnYZQPJlPozzJP2lQPULykd4lJAuHs8o1hjutFGpLXZkB7jQ8wKdE8lUD84XK+dkbeQSCQSiUQigeAXCWhPn7zw7kZH/6VmDBVVVl/4uhOCG+mvoF6tLALAaVZwvg+G33HNTWLz4JhysNsbyJcYdGOXIALWDFRQCoKXcpSzY0nejpm4uLlmBwvteMkNJcLhUNH7RgdqD0mDDZFIJBKJRALBL0AdzXTwxLlfbET4zwyE7OwF9NLsIjPWDJjmF6ZFcmYOnPNDcJaJPSj1QdctYzpnUOYR2e1OK8DsHtSr03K6SLJMOVAY6S+bqjG9TFXhbrWjGNML7YzzObV4ZMZpOlT40bF636cFhHtr+OZ3XHYe6qmHP0MyxstHy/l4vdLHZqW91pfr2MrrQM4rAsEFmo04PHzi3B+3Nf43dp2GzTQ4okVhrQDtsrvEylVU0+5v3pLkQ3DB2mxVNpfT6z+La0QBTqvA3gLJ7+BNPOsB98Y8nCyvnDWivxxgoFpO7c0AXooZc4uPKyPWjKlGG51Y5/CbEh8zOUTuhEQ/OzZY+1OZMLe84GylnBRWOgAv5+N4uRyblQjCy2ls5XUg55XLVeEr+eSnJuf6n3v+7Mc7oHcVgRlfsg8i7fzARCDEWDPQh75y6JUyPZj0JsFxLtGMvfbFzP4kuVyKgqv0ehVesl3octuE7sgzzs3KIzJ+XE6q1QvtGKGKUS0HDqHtvryY6uviFxhJ6+g1fVVMN1podnS6b7YRiEnEIKJSxPzH52YWNrY6/OuVEkWCvqJXQrWTDx9tbL55x2q/0FrJlU+RSCR6KfWKdYw7fGZi+MzU3Oc6jHcxcw7I9AtbqVmPmb+Fkf5qAsD51sd+VwxK0yGyKcTGgmAts5RWfIu42yCsR9VpO2ILnd0AzNlH+lFrzK7b3UyzjVYUF+zui78YXAykiRjDfRUMVIPMRURa8LVd6CjQjF+emp//80ajXZG31eV/tb4ctu9StRoBuNdxtV8yGivztS7HVl7Lsn0vjV6RSvChs5PDUwvtz3c0buvN5t22gUxkWY8s38R9yxiqlTFQLcGRZMbKmk4G6+6PYf27hAz25p0WbglyEMt+RTnDs0mFN3E8dPdezi/vQz1AYAKmF1oYrlVQLgWFIHypVeEMQOeTL3IjMlApg0CYa0Zus5OYOnKbSQBp0I/Otjr1hVb7h/sq5YZ8XIlEl88JSSrEIpFI1E2b31kAPjM+Mjnf+kKUAeDeAGa/s5BJcG6DwocQEQYqZQzWquhVtHUcTdzFnDb5gdiAojEqE6Wcyu6/aQtm9qE1s05yk8koT/GU3XuyO9m9UWAQphodtIrbvF1yVdiHZkJxpdpXf6WEgVopA8tE7PbW1LIpZn7vbKPz8bl2uyZvL5FodVdoBLxXtuT4igSCL0GHz04MTy9En9OgW0DFwOt+Y8iS/NCFfGOLAmwuhwFG+qvdfM3Z/IaEQa0fgtxMOVvXtdVgVgQ2nl8mZYZMgSzcWkI3GEi5zSNKsDrZ/hTDfQ8yde14F+GCGdDMmF5oo9mKPPLOLIilmkjnrSf+z0vFu/WXQ9SrBoSZ3UBmQZhIA98734j+ar7VrgpwyHaKLq/jvVqP+UrZb3nPyoWsbOcyhOAT41MDUwudz0TAbQRaOvyXXDJY+nOOa/MAHCjC6EAtB3I5MPTJ009is80ryPvZWYcptTEYkzArk5LgNk5ZU0QXpbtEhwwws6s6p8ORzUbOOBY47do80+pgrtXp4t/8Y4oA2K/45qu/RFgSovsqYZJWUYzwzhiimd872+z8SUfrUD66RCKBYZFIJFqVEDzb6pQvzDb/Z8S4PYE1jSU/fX2gs1VgKioCpxPJRgdqCKnbXMugbl5jC7fdIJd9vDU/qG7oI3j5v7nHuOqqtVWYRhW2gmoJn9jD5jyQIq0iA8l8QU7+XWhFmF5op/DsTcDreV1hEiG6JyJmrxBoiW4efeUANedN5q7JgpxU1okZPzI52/xNZlbyVhOJVmfFRm6Zr0zJcRUJBF+EGhGrI6cn/qSt6btTcOyFX9kubRbomFIA5h6PHOqvohyqFEqdPYGyFWX7EGtxyDS2QKZznCW5LIFmaC9r6KUUCdNqq+VdU032tiUtvHJBMoX3HaUZw2Q9IgS0Io2JuQZinbU3LFbNtdXfbAWYehyN3uuo10oohcnO2eYeyd+8kjVAMeMXLsw2/veXIslCwEK2VyTHX46VSI69bO+ygGBmxqFT47/cjOkDcEkCxfFnnP+XrV+1e5k8iFbDAPVqOeU35x9mMBZhQtcsg10UGpAFYbYAzOwBNiFLuBlyN9aI5OdkP8jbp9xekwH1wtFIJ7wlsW/pmHDMYGhEDEzMtzIRaq767K0j/7UI4i76dz+NYqhWhrItl01TEDs2TGSzhINI8+9dmFn4d6sJhEUiOWHJfopEolUMwQdOTvxIM4r/E0zgLnO219qiKppllluAmKCUwpqBWvf6lLUbIFtC9mPSwF7LZPIiz6h7fpqzYuiltx2uz1zynZnl18XM6G6ckQdF36fLmeBhgHXyIK2BqYU2FtqdHsC6eF7xpch/bKAUhmrl1L9tm4fkvM0AyjHTR8ZnGrfKW04kWn2AKLfOV5bkeIoEgpfQwVPjt8134v9HMynfI9sLAIGeqWc9QCyxBQz3VRCoHp5eKlgRZZdjyn65iW8Z0H1h73eyUWqchdLegJnDaN8bkqlMe8t7Veu5ZoQZ5xNOn9P1ubhI+O2eLNdb5VChvxKmteyC7ObEI8yDEeu/nZhrbBSQkO0WyetAJBLJeWVFQvCxc5Ob5lvxJzSjz6DmRT2OL/Z3huoqYYD+Sphdii8FWv2IiKJQYfYo8NKPpT//zcLl0o6A/DLkgTS76Dj4W27+wwAaUYzJ+abxCefTJvii9yWtHi9VOSb0V0oIgsX3SScwvK0dxf+90e5IVzmRSE5csn9yXESilQXB8x0dTi60/iZi3pZApL5IKC2Y8uZaFVOmImm5crivWsy1L0i0yLYQgABds9qcBUAj0+rZTE4rKj4X8SRnGlDkt6EAznObQJa0dQLJnZgxOd9CO2J/tp+P5pc8JkTFlWQyk+Lq1dIixzPNEWZNb51ttv+T+INFotUFXHILfWVIjqNIIHgRHTlz4Zfamu6wFghedGba4vSaTgrrniBXr5aTdIJezHpR8uCT7XD4BuJkeGw6RVrWNeDLxf5gWgRy/cYUedjPgDCh+3d2LJCf9KaNF9dMaiMgZo3JhRYamQ5z7LriLQ2hPRIjqGDfGCgHAapeS+dexWMmoljjF8bnGu8QcJDtF4lEIpGcV1YEBB88Of5djQ7/KoPTZLGL8KFS13e2TXFxjFdACvVa2UAYTLOJFzfO7CagcQ6GKZscsehKdEHlFYVxZHnw9XOFFyN5ymVJEJGZhEfQlKYy2BCOmWYHM40O+JIqwL0uGDjbdyS3DwOVEnI25V5QHUaa/2x8fmGTfMSJRHLykn2TC1SRaFlD8Kmp2fpcu/MRZpSyd8KXfu9y7jvrnfXBzSUdAKh70Vx0EU0iumGMekNe/ntK94P0IhYFC/wED6Kz+8Vc8EyuWt6jUUVXtFlxzBm5JzDdNNwTMRqdGNMLLWhLxl41eunItOy4+eOcf1ygCNVymBmOzBh4XfiYsSmK+M9i5kDehiLR6pDcSpfjJxKtOAjWzDg/vfC7kcaVjBdywZrvONb7b0oRBiphFj4v+bl4qU2AT2t2qJh6+IZzk/GYtLFQ2Lxg5RiQs/0ynKeW8k9nK9xIidJ6f4tizsi0YCavgQczJ53uGGhFSZ5wpPUiFwEvXv3lMAfj3g65znkmbI7xv0zMLvzYSvAHr5RKjVScRPJ6EInk/bda9uMlgeADpy68vhXzBy+FSbsbROTgswvQEiIcrJZBdKns1tUurngR5swyqZ85ra4mkEkAKxAnWcXuEcw9isSc6a/R3TTDW566u76R7RhH2QsF3zrBgMthtlXhxJNiWlQzI9YwE+a0t3wWvpfqOGe3p5cCRaiE6STCpPirTUMSneYIm6uDWOM3J2ebW+XjTiQSyYlZLkREomUFwefmG9VGW38YoKBXZbarTe+ikNqrqTIjUEBfpVTMyEtCsMpBcMGkukwcmgaR8h7HKYyb0i1nts7+kLVUMDhXQc7BLi8CmZwDTs6nNdjFOLv58BIjcpnBmoHJhRaa7U5PmH2xldlaJcwCO2xVmgu80Fjb0fp3NbPcZhOJVgGEyS315Sk5biKB4AKdHZ/9pZhxbYqbXNijIvm+u/5LF9k0A0gSIZTPo8ASXeXQDbCchcnsM1Lui7u2iG0V02tnzF6r4CyYexaFAsglUglMZ6q6PTKLFaG7jV33CPa6nGDTB8Q6FGYaHcw2Oq7lcRZ+ybS35hcEyeUwgKLuiyDKXi44b4gGvm98tvE2gQTZH5FIJBLJeWVZQPChMxO7WxH/fOpBTUEyTS3wK55cAJ3dk824C0kJCkkVOH2KixhPziOh/dkAHneDcFK57QHIzs/rsNd9T7l2wchVedlVZakLzl1V17WVVs7CkOu2kduuNMGiq+WHeagy2+YabnC63oVOhOlGq8fg9b66WGoSIgHGEpF5UPpX8l4OyVcQx/z7s41Wv3z0iUQiAQ25IBWJLmsIjphprtn5XQYG/Igy1xaBU4C1xOOl/nr/y8NmjhENDPZXSggo10p4yY+HtGpLXvU2WYnyPAU2eYJTvnaP0x5QU7pK7xHJfqik7stJpBoyKQoGRHP8y+7L4LMix55kLRddfS7sdtgHk7EZAKQoqUabFAZCUcHc7IBOHt/sxJicb5kOcxdxXZFLk+gFxOVQFdGz23RXkTdjQ5qvbrain5O3pEi08iW31uV4iUTLGoIPnR5/S1vz9xbdvbduWC+/DGBAmYrlxceZwVVf+yvlS2s859EfeXCerSCr7oc6+E3LlMTa4S5cylfOQkHd9WsLz2mPjdRzzKm1GERedpqB6hT12VWV3VpdO2OYjnz2l4wuRwZyNXbqTrXoaMbkfBNRrC/qkDh7Q6/MYzDCQPU+nhbgvW3RBIo1fnZybnllB6/USo1UoETyehCJ5P220vfrBUHwAnNpoR3/3wwinavnAmkllb3mEUwup6A44zYPWt4ipTBAKSDv9jkv8sDcN+wBcFfpmHPQqoxv1fvKxQezD6dEALRLO0jAOUbqEibDvablnDcZjnIJEb7r2HlnM5Vjk+nrDRAjaYzhqtya0wy2ogsDsx3J4p4XmeGSIzqR9p6yd4aw/7ei4xmQ6pn+wZymbyQ2ZQVmggZG2x2WlsoikWjVA4dceIhElykEHzt14X2Rxo29ekZcan5v0TvdtipmMokQGTalxR9s/+AXa22qQ0+vazoRjMBg8ib4mVwzMo0wmIztwNosYAu9Wcew/SlZRer/TS0PReNAXrmXcgNKKcyT6ROXH5ecLRnI2nHzw+DiyggmOaKJVifqAt50KNLqb3clOL1EIAICKh5nIjZfcNV1u12a8EOTC8398tYUiVa25Ba7HCeRaNlB8EI7LjUj/Uucn+mP1PWbqZxSD1DOya/8EqfVZGKgVg6WAN4cSWZ8APlJeQXd4DzCtiBLsLFe5CBQ+yVcNqirDPSSfSrP8mA9uyaaDOxVYAt2JuPZTZEYmY5zOvU5665RJW+CXQrCyXP6X+l4s221rGGqzcB0o4NGO84MeL7qy12d7ApeXDYUGV4BnymbWmGaeXjPVelE/B95GUSmrfRKjVSiRCKRSD53V/L+hZf6gGPnJt4bxdgH7o1xiYuAC5G3195zcRwuqqUAgcquntnLmy1KO8uEUOSrqR4Ec77aaq0bylsde4DvzeqytgO25gX73zS1QZlxIPaHpih2Lev19SMe2EuAIPN39jsQ+z2Kc8eEvJbPDAIRp4ETZlvZb7Psbc9Msw3NJfRVgkwIW776mwVgQjaFg111muzFBHEmKo0QwzNaJxcbzO+emG/sB/C4fCSKloteaMVMLjYujxPz5VTxlNeESPSd0SVVghsxh82If81NfMvzJy8Oui9EtXJ3c4yeE+v4Iom75wLkWvom4KqS1se2aQZ5jTNIZRKRk8lzZh3Or5uF+l4V00wbkTxUZtwb3U0xMn9nL5nNo+RMojEVXDlYnkfS0phNUsRcs4OZhU7P6i93RVdk163hV/h1CvHg7r33ri3AXIpi/mXxBotWCzzbr9VWwZFb7Svzwk4kWpEQfPTMhXd0Yt5rb/N3ATAVo90LRWMCUC0HWNRkXMBTWMz62yUNvzWyq3CS/RsA1jkQpa6mIKlxQbs4NPaK1Znqdc994cxzZPPYuEdH6UxXitSrmymA2yzhpBrLzldtq9ScA+fEQgFitGyEWsw9n7YA5cEMxJq9Yjtl980+l+cnTh3ZgNb8jsm5xq7VBASyn6LlAMMikUg+b1fKfl40BGtmanX0z7ONOQByk8KWwtyCmWBYvOdFOVQISC1Nyl2dIi5VXke5zO908uUS0IpA1A8gS8GYmLOJD1TwmK6mH1kPLnPW4My6oP7O3NWYA36VlnUC7WaiHxGlOciZY+NtA6UPZQCdmDEx30SzHWUQfbHRbEcRugu5ns+Zs5334FqrmO8Z1Sjmn5aPRZHAsGg1nZjlwlMkugwh+NCZiVtbkb4tYRlz85zy6NYNc5nqZ8Ht7V7TnwiEaim8OLK9pMrvUivxhyY1IzNlIa6wyQfnmlvYyXG+NYLTDm8uF5i8/nPWjmEaZqTWA5hEiF4M78EwewXg4vIxXNOSosQMthFt5Drdac2YanQwNd9ErHXhsbTr1syYb0e5p85O9Ms2V8lfw5CJ1MMPTc+3RuRtKhKtbOCXUZDjIhJdthDMzJhrdn6SiFQKSEuv9pKaYuRaOzAY1VJwaQ8t/BP3gNzFANj7C+dv4yvXlS3XKDltQOejfG4imfvXuy4gNlnLzGnjDO8iIo0j49w+ZZEWXpKF38qaFrnQyCKoTcbwx4xNgkTigW5GjPG5FqYbHbR17FKiLaxrDcw22+jYxhucbfbBuYsjf68os+EE1jzSijvfLxUj2V8BEZFIJJ+zsr+vCASfnpxdFzHekxQWeXEPA9L0gcXis4pBNL3RTgSUw4sIr+Cl1pprfnFJj/eaXdg2y0weLKZ+X6B74lvCf4v7NJxf2APmXptKbupdgRuZlNdlmjOhEcAizS2YM0/oLC6cr9Fq1yCEmdFsR5icbWF8toWZhTbmmx3MNNqJbaKjHZAzp+Zof/vcmim7T8prrgIAcYwPRFor+YgUiUQr/cQsF5wi0WUIwednG+/VTH0Xu1LmpVyjvWg2fUwlCAoTKBah7iWollCUBpEkPvQKM07jzji3fvLgNlvl9eqo1tKArE0ib5lIbQ9Z7mT0gutcqzmitAVzQCBFxTYTv4u18WMktmTtdVT2u+Xl4z7YeYztHYGYNZpRhPlOjGakEZu8YWhOquiU2j1cvZr8Y2EmDBLljp7dIXXj1FzzZnmrilarVkM1WCrecjxEossSgjUzYs0/frGzzpZ2QCwGqakqpXBxjOb8E1LhetKFYw+0rd83D8+OPg0g+hO1OJff2w20fqe47r0rmr2Xem6JqGvsXOWXKBcCkc1Io64GIa4dXI+Dk80c9i0QttU1G/8xcXHaczIRUoE1mfmDycS97CQ9b2og5cvbxuax5CFmihk/KJUi2W+RSCSSz1fZ7+8oBB86M7G/o/kGXGQDr6XdDxexHgbKYXAJq1l8Zhxz0YOoayE/0SEBS51dnDnJA87YDSjDnkXVW5ue4WwUfm4ww+tjnAVW9rieQAVjayatcVF1ON1HV329mDmGlB00XvS4eR7pgvF1EXFmbLtfIN7vslcT5j/KjtP75otlMi8AACAASURBVBudmnxUikSilXpilgtNkegyhOD5VvR9F1PfXRKuesRl9QLcUhEELxmDRj3BjtO+vebWv06TFPw4M9sJzgGcNl8eGPqxGJymHhBztnrreXApF2LM7Fd0C9qP2MeQb03gTAWc0h1IY8fyQ0YFPfO4G3ozXYoprVxT/vh5La1dAw7uZtrk95yxjXT5wx37krcN5hk1AI7tYmPz7fYb5e0qEq1cyS14OQ4i0WUFwQ3NFMX6vbahAr3Q61Qu4l7qQbUMBSAk6s24i25HULhb5D8ljK/VTvaC9tN4QSYCLFNBttDKZKC6V0JGdzycW95BKLuqMfkVYv/vQLZFs11fQZOKbKpCAbB2XRRQFnrh2zX8beXM9741guzPfs4v5Tva6a6DlXik0/X6205eVrHNNU7K3CDNeN/P/dzPrcoK0eUiqVSJRCKRfK6upP1fFIKPnx6/RjP2WE7h3iG13aDF3lcmI9YHxW6fKBgohcp4U73Va06hsAd0JooT+Mo/1m2q142NFPzubNmKbVpBzkxY84AtcTPQUlRugFO5arRrlgZ/Il2vbGVkKqac+i6ML5dTXnYYb3/WhduS7Ce7yqsPxNkJfF5ihX/0bGcUc6HAXpWacxc62aqz9UwbTzZ7aRvWTuxZUJgoaVmdJFu8+bf/y+9V5SNTJBIJmIhEopcdghc68XeDVMCLTmDKgqxrgubzTUp9i5CimeBFhFJQYIVQVOydhYU97UEfZUN7/edXCfiy80gkoEXeUOTBzaUZ2FIo+5VL9kDZ5v0WjZB5rCIzJ4/c6NMiEG2rxgRvezkdszTxwYNVa0OwfmPyvcHshpGMr4HMftlMYb+CnUVr+1xpsi/ZbXMXB7mKd8+LldTKkQ4ZZybLkYsMVgBjw1yjddtqfrPKbUqRvMYFumX8RXLMvwMQzEkqxNtsie4i58WZ7FcDXDkG8idZFd2mZ0POgeq1Yo8qFwXyomzgNO4MpFJeNN+zB7sJH1MKt2xzbwn59DcLjb6tIW2sQRkgd75i5ynOVraLcob9Sm361Oygu7uo7q2PKEv15rnZHiSvsmwBuCjX2a+Qp70vjCc56fYBZpXtCcecS7zojrGzHfL8Ic1ZsjP7EjO/QypDcrIWiUQi+TyVcXhZIfj87PxorPGabOfdi4xJ40w4gZeO4ENNEbgmKgUBaCmmXRSAkadUbxmVewx3DYndZ/KLz8RpFRV520A+CcKrPPuVUZ/0fJruquamK0u3wYK1yfalxM5AuYsEO0GOve+9YDQADEUEkHbAn/5b3OXPz/UlfxmTUQx4FebC10j31QtR+hhbibb76rmT8xdBb2FmqVSIRCIBFJFI9PJB8LnJudsBVH2IKexUlmNkyjcaWxKdOS0dG6BURNl1XMRHEefTE5yZVnvQucSWmMYWFuRtO+Ci3Fu/akqe7cKhrfMxU7a6aUlPmceoRVo2W6+se878PnAxbhJ5iRjGpGGtE0TQl9DMJBk6r2LsnsSrRi+5LvKOEaUpENYvvlj4CGt3LDXT3om5xqbV+Ea1t6zkdqXolX4NrpTnEdhe3eMukvPKohDc1rg9n//aa0paJkQh/7UkBpPjKEYSiUVKmVwBcl9LKa1CeuALzhWIkySIXpDmGkyQAiszPJlEhmx6QnfVlEFKZdaX2AKMV7hXXw/nFc6mP7DxKFBXg41uEM8373DVaVNSJ/I7tPW6iOg1trnUCMqvg7vGsriibJ+fc9dJnC5ABWvUpq00uBxrfo1UhOSkLRKJRPI5KuPxskCwgZ03ZUntxYiK/kngjNMua7a9cKCy+bnF2+F5dDO/5ovYZF2A893d3Lp8HR4IJm2OC9owa53d18w+E5ZqkeaKtK5YypkJgcxZALWRY5QBzWxTjos6QtSrGUZuPygPtYtBNOXA3B9mzj5nrsGH56xOx0wRNON2+bgQiUQikUj0skDwZKM5GDOuTSMeCmjtUjHYzkmz8GsmxzFpkNIJyJn4rqSQ28u+kIdf8jsdpxaAi27fbKvDXPC9WcIkQqSTvdIvzpqD4ecfs80j9hMyLgZG2R+l7rSKPHDmbSpMBRcOPYC1dwU4C9f2IBbDfy+I9uPkyPNXZ4+va2SSO+appSPj3b6FeXVdQOdvVcltS6mQrLbX/Eode7FCiOS8chlC8OnxmauZKSxqdNBFVB7wUA8oS/2jlCYCGF+oMssrAkgRSJGBR2MhgEagGKWAUAkUaqUAA5UA9UqAejXEYDVEvVrCULWEeq2EwWoJA9UQA+UQ/eUQ1VKAcqAQKpV4jTPlSK9TG+fhLbeMokUmjXlAyV7TClNNTqwhl/BZZyecmX+tF5i5u99IkUWF2FqOufhyJRPzRoV/hotKU56zJL0IAPMlXRTl4+R8mCc/TcNYQzj3OE/XN9pxWQBEwEwkEonk81PG5cUoLPplzHhdYiMlR0QMvcREKM+56tr4epkCrBw3EWXXwdAIFaFeDlErVzBcKyMMCGGgEAQKyt6W926r97oVT9QNWf69dWaC1hqx1uhojThmRJoRxRa8e18McS6nmPzGDi5SoptKiS4hXy6TIIE0LgF+yAV564bf78MBrJsg56/Xwi8vUpUmZMeAeowIZX3idJE7RzAXBcg14shFqdn9stV3Ow5MGJhvNq8C8C35yBDJSeGVqRqJRCLRSlCPiXF0c0J12pu4RBePOxZ+eyyqGQDHGKgG2DxSw75Na3D99nW4ctMIto3VUa+FqJZChIHp5JZrQEHd9uAMUPlxX2TzeS0kEiNQhHIYoL8col4rY6S/gnWDNazpr6FeDVErBQh63t73p3OR686WSWK7iBHueTR8aqViO4O/NcnjuvLcCsA2HbzFmdzLgGNeZAz8V4XyLgR6bGwGzKk7NbjooPrXBN4jNOi1q/2NK1Aiktf48r4QkQsckbznXnmF3QDLeOzY2avYr9xd8mqTcizDVmST3wakMdhXxnB/GYO1CkpKG1ANcsHCCsyMRjvGzEID8/MNNNttNJptLDRbaHdixFp7lWWzfkWolEL0VWvor5VQrZTQV6thoFZFtVLKzr1yPuJ0glZSfS65fYi1RifWaEUx2lFsui97XmIH1r1aJ/eoui6VKkYFWcd+9hoXQGv+x3xTj/wyad/nTN5vepXip2D4y1PXOgmc2+zCTiiZse/aZM3ediFTGWaXTkKgxEezbzmf/FbKh9Lwze9gOYGu7NefSCSS88pKPq8U2SGCONI7OTEhJACSuyW+5BHk9D49MWO4VsFYvYLBvkrya239vgoaGq1OB2fPTeLk2fM4enocp2ebOHhyHCcn5xFrysBR6hWltMWua7VrfbMMNs+RtA+OMVwrY++mUWwdG8S2DaPYODqMdSN1rB0dRuhgPZsaEShCoAJUS0kbZwvErXaMyAPI5HmKuI+6AZSzy/NFpzgUhC5zDzOC50vu4WVI4Tr/d+1bS/x0B/acGuw5GMi5NnrZVfzN9lssZ20slLVtIAVvMgeeUwvGtcx88TYTkUhOklIdEolEoqUg+MzM/CCDBonYzcrPgEshnKnMDH4NoETAusEq1g72oxqGycQwToB6ttXC4eMncfDwSTz0zFF8/eAJoFQGKACTwvDoGnCswUEZSpncX8NufvHStnMmTv267Bto7e9JYbLFuP/wBdx/+DyAQy6atxoAt+7ZjH3b12H7xlFs3bAWwwN96eQwA27MjFKgUAoUBiolRLFGqxOjGcWI4+wkMb99sGuVrNKsNPJ2hMjzjixVHXa2Dn9SG+VIs3Cq3CJczV3P7VIw4FXLM41CqHDTkv3tURW3lhXPp92VagHq3ZyQkFzQJNt7ZZR4MPRqfvNOPfwZkmqhgK+8xpdfdUqsECJ5z12uEDwxvY+hFHOQmaOVQAtnUlyd3UEnv9UMBArYPFzF+sE+lAJlcmyB6dkFfOvgYdz32AF84dFDaEQ64ZkAUBSAY06AV5muYmSAyjSvgNaZimNqtWDkc8SYu6O/7MQ1ysFqIyZ8+cBp3HPghEtAuGrDEF63bzuu3rkRu7dsQq0cumqkXUEYKISBQj9K6MQazXaEZidORsjltVHqhvDT0wBj+dAFSRq9xVlMhMfauasD5FpFLwbDvRMvfB+xrcrabWDbjlkpF6lsd5Q8kHbPnNkeznQIJHOh4pbOFLjNc9njmSRHrG81O2MAzq1kKFkOJyixRKxskJVjKxLJeWUln1e6IDgMgn2t2LCbB78pFLkZTpkJ/QoaG4arWD9UQ0klC88323j6uSP48oNP47OPHEJMClozFAJQQNCsEcDUb1mDdWINIGZXUXT90kh5oJved+8ZckDpBC8XssDZVIK0w3LsYJBJ4cC5BRw89wxw79MIOMad+7bi1Vdvx9U7t2B0aMBVJO16SoFCqVbGQA1odWI0WhE6cZzlS+Z07IizqRFLHGpm2zGNUq9BphezhUUPqv3qc1Glmf2LCbiaqksAcRPoqCvjOTO+2UiLFFop22I6uy9etdm2jXZ9qnPbCN8u7lYUNKNoy8sJwSKRSCQSiVa2uiC409EbmZNIhdSnSSkRAwCU6WSWfI3UQmwdHUYlJGgGzk7O4Mv3fxP/4+6HMd7ogEgBSkGT9piMkpRgA6nWSEExQ+sILnEgR0JpK+EsYLIHWYVc6XVaI1DWTksqJUBOm1wwAzEr3PXEcdz1xAkErPGa3etw56v24oa92zEy0JeBPwKjWgpQKQWINaPR6qDZjsBu/d5Vg2+A1Tn6y1VzKaXTDPzrTEM7dpMQ83zqKsj53srwrBlujCgFZrsinayUKf2+u+KcTqPMuCX8Zf3rAC/9gsEgDQfe3FW0Ji/eLVlOA9sBPCpvYZFoZVeMVpolQqwQItFlDMFEagfl8oA5k0ygANIgMCohYdvoIIb6qwADpy6M47P3PoyP3v0INAAFSgAYSNoJK2UBxk1o03byk7nVrgHoKAIoMJPflCO9tLibszr4vzMb69oNu9vtKVA5gLeOXyYwaQNaFpC1B65JFZaVwv1HJ/Dg0fuh6Ot4074tuOOGPdi3eyv6yqXUJkCU5B7XyuivltBsR1hoxUngnNsJjww9/3WmvG73SdvthquUpxPquKuqy8xJhTWTXgGwTp4nvaTx7A3wxqkoncKMTXJt4lekvQsR+zjV47OVcp5h1z45fU4ucm34EG2hmdXul/Nkt1xOUJcDIIglQiQSieS8shzPK10QHGvut3mz7N2ltvhhwWtNXxnb1g6iFCiMT8/h01/8Ov77lx5HwllB6uH0DJ5KM1gBygNhIjNBTQHbxoaxc9MohobqGOjvx+BAP/qrZZhwBsQaaLUjzMzNY26hiWYU49xME0fOTmBivonYhvJq9ngtbUEMoq7MYZ9H/Zxb28bZpSJQCn9MQMyELzx1Anc9cRxDZYV3v/Zq3H7DXmxZN5rxTSsi9FVKqJVLaHYiLLQixGk3ZVfZzpSmc40joJBaP+xkP8937BlVPCuCZ7VgpJPbKJ04yJ51wnGmBqByyQsZOy85sGbvV6CLzJG2D6Dc99nrrm7lCuVa6/XysSoSSZVQJBKJXjIIJsJ6YuPDZW1AKZn8lkCUxvaxAawd6kOr3cHnv/ogPvwPX8NMW7v4LygC6cTn6yqUxsNa0sDr9+/EDXu2YuuGMaxfuwYjg3UMDPQljwEn/7qiJBWkEaS30cFJobQVxZidm8fU7ALOTUzj5IUZHDl9Ad88chZTzRhsrAIMlaZNZCrClrSU8+CyP5uNOYF76CR+zTGfwnSH8NF7n8Ff3fs0bt21Fv/21n24fu8OVEuhYcyE4KqlJG6t1Ymx0IoQaePbzceeZarFnCmcZqwRbLcxTYtIq7npLjHbwDv7GEPW5F/e2Coxp5P7DFBzPuONqOtxXcC8KMn6XuXc43uCcDadhIkq8vYViVYHAK8US4RYIUSiyxiCmRmPHj7bnxYPyU2MS261M65YP4ih/gqePXYSf/Cxz+LxUzNgZm+eloEkpRJAjSO8avta3HnTVdi3Zzt2btmE/moJirpbqbEtiKpcRzFbqXS3zLO34hUYtTBAdaiOtUN1XLF5HWxFlYkwMTWD58+M49vPn8EDB0/g6dPTyOQyuHvw2gGwPyvL5+TkW5UCHLEHhgEeODqJB47eh7G++/Ge112N26+/EmODAyZrOVlvrRKiWg7R6sSYb7YRebf5AWsZgCnDc5Yv80BqiZcohXvPzmL91y7rVxFII4msc8/KzjPNuedhz15CRd3ozDgnjg5O/dZUsJlLpVPQYvicmjiSuwe04eU6yS23E5RYIkQCRyLR5Ss5r1y+55V8JZiIeAikXOWWwdAaKIfAno11EBh/9Q9fxJ/988MABc7T63MMgXHD1lF8zx034LqrdmH9muEk8YHIS8ji3hVeN0EtWWMSxZVdjrkoDze7Hvt864YHsXZ4EDddtRPveyswNbeAo6fO4YlDJ/Glxw/j1EwTGmS8t939mdl1gtBpJdVtVNr4gREngAzg3Hwbf3L34/jzux/D99y8G2999T7s3LQeyk1eI1TLASqlGprtCPOtDqLYY0bPEuF37WPO8aQ3htrGjHGa6KGQtIkOiKBU4DosO0cwM+KYEWmNWLPbfh9wi/jUjQGniRBecEgx5+bpuFdXDVoUlQFmaM1j8tEqEgkAi0Qi0UsFwSGR2ujHf4GBUgm4auMALkzP4r985O/x0NHzCSwpP6KMEJDGv3/dNXj7d92IPdu3mPlUZCrFdhIWwNBgTtIhGECzE2F2voFWu4NGO8ZCu4NIJ3DGiYEB5UChXApRrZRQDpOM3r5qBbVKCaFKM2ZtAplrZczk5fMSFAEjA30Y2bsDN+7dgfe/7bU4fuYCvvXs87jnsefw5KlpMykPaac8160urfpmY8AItncDa2+iGwEaCp9++Aj+8ZEjuG3XWrz79ddj3+5tCJE2pq6WQ1RKAZqdGPOtCLE2f8k1ibOAWXxplnRWU0SolBRKQYBSqJKxyUwKTDuvmUscEJOD504Uo9nWaEVRcoHjVu9Xxyl7ocCOwu3g97g+Iddbxcuny62vxyuVvD1I0kpq8vYViVYPAC93S4RYIUSiyxyCGQgArlriUARUSgpXbKjjW88ewa/8yacw2dCueQLrGCBCoAg//tab8N1veDXWjw53NQsmMxFuaq6J0xMzODU+g+MXZnB6ch4nJ+fQYbgYMQahWipjoL/fgWZgzQsGnti0R07+o1GvlLBusIbRegXr6jWMDdawpl7DmsH+pK7pAVcmaQyMEoCdG8ewc8MY3vFdN+H0+BQe//Yx3PXQARw8N+cmjzH7TR+0mcuWzHCjfM9kr3ObTfhlEL5+ZBzfOPJlXLWuhve+/gbcdPUuVEtBsgQRauXA2CQiLDQjRF4/NM60FE7THRRrhCFQLYUohQHCQFljB2YX2jg/NYuzk7M4NT6Hs9PzODu7gKnZFiKtoRThus2D+ME334KBagUdzYiYoUJCiQI0O9prTmIn1qGgWut8KUk1nXIL9HRBXOJnsVciJ6KXvBK8nIPMxRIhEigSiS4/yXnl8j6v5CFYMSNIGi0kTSD2bBzGfY88gf/4kc94d68JrDWYY3zvbVfjh971JmxdNwpk2iszmp0Yx05fwLdPTeDRo+dxdHweEQKzmIaZpgaCggs0YCRNNFSSOaxMhZNB0NojKAeDClMtxtT5BeD8AogmEZrEiZA0dq6tY9toHRtG+rB+uI6h/qqpP1MBwzG2jA1jy9gw3v7a63Hk1Dnc/+QhfPobBzDRjEAIkoYUNqeY2HlmXVMO2O2yHlY2o6GcseGZcwv4jb+7DxsHHsD333k9btt/Jeq1ipu8Vi2FqJZCNNsR5lodaNPLI+3XpxEaaK6VAyiVPN/UXAPPn53EodOTePzYBZyabkCbiwvNgNa2+wmBEIA04+2vuRYD1SpmGm20ojidCMle7jB7AFzIrnk4XsLikAH6Itj1ut951XbfHqOU2iAfryKRALBIJBK9JBDcYVRircGkEBKwe8MgPnPP1/D7n/oaoIIkeoxjaGbsWTuAX/zAO3Hdnp0IlJ0MxehEMb594hweee407j9yDq04bYpAKkBgIIg9u4JLGKDErhBrhrJWBAOZ2mTjumUZUCqZDEYmaou8WDRmQhuEg+cWcPDcAmJmQGsM10JcuXEIu9cPY+vaIQz1lY0L1rSCNqViRcDuTWuxe9NavOsNt+CJZ4/ic19/El87dBZEoWnzm7Zac+jPNqUhwWr3N2MJIWetAE7PtvEH//QQhu5+BO+/4zrcefM+jNT7HCxXKyEqpRDNTuRsEtVQoVYuo1IKEYNx4vwUnjp6Fo8cOoujE/OAUrDpHhrKmyuXxtv58Do5u4Ada9egFCq0jCmZrR/b+C/YXLT0bPFsf60LrBC9ll1E7B13ykTH+VPzuCxvX5FodQHwcrVEiBVCJFoGEAxGKdJMDI3tawfxmS99DX/46a87C4GFoB9/6434gXfeiXqtDM2MWDMuzC3gkW+fwD1PncBUm1OQgs2VVSBlHA3aTqbycmY9ENbM0CZezU6CY68SaA2sbJpIEAGkyFVSrf8YHpsBgCbCRFPjG0cmcf+RKShobB2u4tqta7Bn4wjWDQ+4aWFun4nQXw7xmmt249XX7MbzZyfw1ccO4u/vP4D5jsFgO5EvSS1IG4s4pFMuC5jZJFC4yi5hus348y89ib+85wm873VX4U0378OG0SEH+LWyQrVchfVqn5+axRPHzuHep0/g2GQTaWKC8rzL5IWnpdYMeB3dlCJ8/KtPY2ywD1vXjqAcBJhr2i53ZA6MD7+8OMWq7ur6ohXfHgRMnF7IMPnH3OPhS/ZSLI+T1HIHBLFECPyKRCI5ryyX80oGgm1tdrBWonvvfwS//6n7YLulEQFr+kL8xgffjVuuvQLEMTQDJyZm8S/fPIyvfvsc4NIHDPixMgAIlx4AUBLTBYA5QMwAzLrIPJZB6HQiVEqlBF5dlRbI35NXpnqcThhjr2ucBVSfyixkMZgUnp9u4/npMwiePI3RvgDXbxvFlZtHsXG0DsWe3YEYCgo71o9i+9tei3fecSO+8fi38TdfeRwnp5tuvaSUn+VgMdyMhelQR17+sAVWHaNDhI/96wF87N4n8W+u24a333Yt9m7fhJAYSrGZSEhodSI8f2EGxyYagFIInBshMLYMNh2gu30I5F/OMDDZjPHbf/8A3nfbFbjtml0Y6gvRX1FYaEdotbVp7MFee+V8tdezgfBilolLoWByMRiszPem0k/mDkEYqBV3Ihc4EclrTCQSyXv+O6cMBAeEViWAPvb888FvfewuBKVykpSgCNdtHsFv/Id/hy3rRwEGzs018M8PPYcvHjgNUAil0vbG7CIaYLqRpeBEnER2rR+pY229hDX9FYwO1tAXKvSVS6hXSyiXQgQqaRPX6XTQ6HTQasdY6GhML7Qw3Wjjwmwb52dtFTSNG9B+FZT9RhOEtKjo+XjNpmkCLizE+PLBC7jn4HmM1hRu2rUO+7aOYazely9EYrivirfduh+vv+kaPPrMYfztlx/F02dn0hxhzxsNrz1xlhBNooRte2yakxAC3PXESfzzE8/j5u2j+L7X34D9e3egEibjt3XtMH7ozv14yw3zeOCZ5/HlA6fQjL0JfOy3lk7L7XYCn41Js5MLmzHw1197Dv/yrefxjlt247qdGzFQDTBQDRBFhFak0YliRLFvVYDpOgcvwRdd/TAW590cUOvkwiTzUG1eQ8SohgFq5RDlMMDU3NyCvH1FotV5Ul8JjTMEhkSiV15evwhGxBi875vPnPzZ3/urAQQBiAKQUnjDvi341f/wfgwP9KEVRfjXJ47gUw8fRaPDDoSS2+zKA75eT2azEoCYGZoZJQLqlRCj9QrWD/ZhuK+M9cMDWFOvYWSghoG+KvqqZQSI4CqnrKCJMN9oY2JmAeenF3BychbPnp3FTEsj4sRWkbAaubg221o4XyN1cWeUjXRTYFwx1o9XX7EeezeNoVJSKVzayjQROrHGU4eexyfueRSPHZ8EWEEnBGeq4MoD0TTHOJt3zKZLn7GPUALJShE21ct4z+3X4tZr92CkXkkmFFJis5hrdPDYcydw1zeP4uR0Ezr3PL5/II18Y7cMuwsChmZgrKbwlv3bcMtVWzFaH3DwrDWjE2m0zVcnik35PgVgx7VE3ZPh/FecAXDOvRJtxTlQCmFALg4vDJLXliLCyQsT+O0//8R9f/or/8d3vVQns5VyklqN3sOVcMtRgGjlvs7FDyyfS3JeuXyPn18JppBAX/rqA1VWCahqHeON+zbj137q/Rjs78PhMxP4+L1P4uRMGzEDZGe5aVv5ZMM+ypI1kDMHJLftleHHpO4ZkcZUhzA71cSxqWYSi6bOY93QEDqxho5j1ELCjrF+bF7Tj00j/di4po7h/hqG+6sY6a9i98Y1JvUWmJhZwPELMzh0dgZPn5zCbMfcTldp9znKZ92CjVc5JTYykRWHJpo4/ODzqAXHcMvOUezfsR7rh/vNpK2E/EqKcMOe7bh+73Y88dxx/O09j+DBIxeQ1HaVl67gtRz2ANhNmqMAZJIzkm0IwNA4NRvhj//5EXz4cw/hXa/egzfddBWu2LIBCoR6rYLvum4Xbr16Ow4eP4OvHziNrz93BhErKJVYRmz6RvLs2mxHkBw1rdNudQRcaGj8zweP4pMPH8Frdozh5is24Iot6zDYV0W1rFAppdaU2DTZsM024tjCdPqvy1lz/nDbVFAlVWlFCBUhoAR8AxPz5pJIOK2qHz59Dr/04U9ix+hAR6Dk8q2SiS5/iJTKoEgkF7ur/bySb5bRbEXRGVC4hXUHN+1Yh1/+yX+PciXA5x86gH/65nFo39tqkhGgujHXTQgz0MldqVnprflkSXbFVVuJbXQiKFJgUliIgCfPzOPpM/NQlEDncC3AVRuHsWv9ELasHUJ/pQRCjNGBMtYMjGH/9nV4BwNnJ+fw3OlJK5ggQQAAIABJREFUPH5sHOfmO1AUGO8xvAl3jkaddcFaidnA7gITvvLsOL7y7HlcMdqH1125Ebs3jqLk2VOJgf27t2Lfrq341nPH8NHP34+nzswC+Q55/lC5yWc2QSKtqJvuFmDEABRiKHzywcP49ENHcMOWYbzztmuw/8rt6K+ECAi4Ztt6XL1tHd57+9V48ugZ3Pf0SRwanwdIufbImaOgzSjkC8dm4t4DR8dx/9FxBPgWrlo/jOu2r8WOjWuweWwE1VJgoJVQZmUg27d8ZKflWQsKFcWouTziwmZ4iFjja48fxG999G5MLjShF2aelI84kWh1grBYIl75CppItBLU9cb42d/5s4fueer4zduGKvjwr/yv6Our4a+//BSeODWPQHGmQ5i1DKSpDZxN4OKUftllA8NVBm20GZQHYZxOpKvXaqiWy25lthmZTR8jKOdvJY6xebgP+zaPYNf6YawdqiGgpPqb3GJPkP389Dy+fXICjx67gAvzUZI/zGw6JnNPS2vXHDMCFBPG+hRef9VGXLN9Haql0PmgbdPijtZ47MBhfPTuh3FofAFpxw8Pcr0xSSkUJh2C3GPcHD3TXMOCcxkR3nHzFXjd/l3YvW0DyoHNXg7ARBifnsfB42fx8HNn8OSpKWgEJoEj3TnKTXhLLCRpS2grrQmR1gigcd2WEezZOIzNawaxfqSO0aEB1CqlNCTC7woHG//ruo64JA0GodFsod1uY2hgAKkzJdm/+WYbH//cV/BX9zwBYqDZbOCmrfU//Mhv/NzPvxQnsZV2klpttx6l8r06AWk5vM7FCiGfSXJeubyPYb4SjPlm+9mAcPNv/8wPIChV8If/9BhOz3WgCNCc5BMwAcRpXzhigibtlXsZvgm1u6GaXxvkJDzB/IK8iW2tToRquQRbXyQHTSlvaxNNxqzw3HgDz55fAPgENg6VcdOOtbh66xhG60mDDCJg/XA/1g/347X7tuLE+Sk8evQ8Hjk6jpiVydIlt35vT7p2ywLd+ILGpx87ibueOIE7rlyPG3dvwkClZBbWKCvgNft24ca9O3Hf4wfwl1/4Js7ON1M/cXpFUeChtSkJZvqZ55t1MXCs0WDg7+4/hL+9/zlsGa7iu1+9F6+5dhe2rhuDAmHt0ADWDvXjddfuwvRCE4dPnccTxy7ggWfPYKZl9pnI5SUnSRScuZ7RnFboCQoxCI8dn8ajx6eSzGbSCIgxWA6xdXQAa+rVZKJjfw391TICBcQxoxMD860OZubn0Wq3Ue+rYPtoHVdsWYf1a4ahyLc/AE8dOoE/+rsv4lsnJxGSAnOMWHcwNFB9XiDk8q6SiZYPTEqlUCSSi9vVeF7pGqTf+tOPffSKbZt/+LWveRU+9LnHMN4w/lRiE7ibVFdhQdjAmkbqK7WTnkAqfRqX3ZvCHtloYL+DGAPwerqtHRo01d8UBNl7bMKPNhaMkONVKDD2jvXh5t3rsGfLGGqlAJkmHSDMtiI8efQsvvbsWVxYiAon9XmBCN2cbzqrsYHe2/esxy17N2KoVula12yzjS/c/wT+3y9+E63Yq2wTOdh3lXWk3mBYX3Fu/5jTjnogNnnMCgEl+/3mG3dj/55t2LJhbdKoBBpghuYYESucn5rDyQuzOHZuGkfOT+PouWl0QKZKbGLmtEbM5NIk2LOIpD5wOx1Sgc12BGQm+IFBFGOkUsLu9cPYsX4Y29cNY/PYEOoGkMm9VhIdPnUOn7rnYdz11Ek0mi3EcQclBnTcwffffhX/yHvf9sOD1epfr4Sr25cDQFbqfl3OFQo5YUqFcTW/D1djFVHOK8t/v7pW9pl7/vV3r7r6qv/zL774JKaaEXQMM7nLVmvtJCs/d1cZ7tXgIkuE5wFl6Az8sp8K4IA5jZwdGehHtRR0Je+mKRHdAOzvmAI5y0Q1YLx611pcv2s91g71J1VtrztaxMBzpyZw38GTODLe9Pf6IkYym/RQIo3XX7ker9m7GQPVchqKYJY5OzWHT37pIfzjY4c9ACRnp3YNRPzn59Qi4F81sG1qQakvl91FA4FIY9tgDXfu34Frdm3Crq0b0FdSxo+tkomMlKw7ZmBydh4z8w2cn5zFdLODk+OzmGlEOD87h4nZJpqtGB0dJ2FuxAgCQhgo9FfKGKn3YaivhHqtjM1r6ljTX8Xa4TrWDPajv1oxEy7To+leA+a5Dx45js987Ul86ZmTSatnBhrNBShOpvG977Y9+OB738yVUumnlQo/LB/MctIRCF69IHw5v87FCiGfR3Jeufz3rWtFh89c+JmPfPHJP5psxog5mTil3a17beBVmRwGU+xllebcUpJlm9pByWtkoQ07kwfLLlOra5MUCAO1CgZqldRnm3ZNdr9Le2Gk2GobfJAH2DaVAJpxxbo+3Lp3I3ZvXIPQdqAzPecYhBMXpnHfgZP41slpsDUK+IESXYaBnG/Y2AtqCnjd3rV49d7NGCiHrspLYDARDp88h4/dfT8eODzhLBY2U4PSgctGi0EnVV8zSZFJw2/NRl4msxt3CqBZg7VGwBqv27sRN+zZgj1b12PbxrUYqJVzbZHtxYXtcqfS4DvyxtN+Y7vmeccBSLrSESgzePZCQGuNiBnPnz6Pxw4cxWcfeAbHZ9rOkpL4uDUazSbKpPBTb78B3/fm1yKgGKyC9wSq9PdyVbt6908gWEBYIFggWD6P5LzyYtTlCX7q2NlnZpoRa1Nate14kxgtC6E6AWFKIJlIJ8jq8meVZ3/QSaXSVI/Z+XuVAz3tIsGSzFoiIDD/tjttBP0VaA2vQmq8wEhvw9s0A5XhUMqmHiT2Y2gCnjm3gKfPPocNAyXcec1mXL1tHcrK8iZj69gg3nf7IO6YmMVXnz6BJ07NmKxfpB3wfC71Idk7PA0NfPHAOdz37Dm88eqNeNWujaiVQ4CScdi9eR1+7QPvxINPPYe/+PyDOD7VdDDN0C6mLfNEUCZPmN0sQQu+7FmM2bucYB27i4OYAnz12XO499nzCIhRCgn7t4xi/84N2LFhBJvWjmBszTBqlRCE2Fw8aONFTibpZRIeTCtoO9nNgrBL+iA4v3HMjInpWRw/cx5PHj6NLz72HI5Nzpvx8A4UIcngY4WKAn79B96AO2/ZDzDj2LkpPVQffFCQRSQSaJeUiJVzUSMSfafV9QY539abfu2jd5+MqAw/K8E1kDBQYxMXGHEyqYr9Tl/J77UDYcp5agnkorKSnFqFGCMDNazpr6KvEqCiFJRK6rKVagVRTJiYa2Cm0UFLJ6Fi7CUkWOhVBqAT37CXeGATIAheN7n0sWN9Id5w9Sbs37kelSD1p1q4Pjk+g3uffB5PnZkH+5O3Cib+5QfYM46gXgbecu1mXL9zA8qByjTMWGi3cfc3nsRf/MujaLskDDItlwEvHsLNoyNFScwZMQDjd0bXTETPr63dtpApjSvjydVsoto4BrTG2v4Krtwyii1jQ1g3MpBYHer9qNeqqFZCVKtVlMJyUu0lU9mNNFrtFpqtFpqtCNPzC5iaWcC5yRkcOzeFx4+cxYVGB0yBsSfr5K4Cc3p3we2qwqb+EL/2o2/H3m2bQAyMzzXw+YefPf/+O6/fUEquvqR6uMqri3IsVzc4XY5VRqkCX/7HSD6L5HMKKKgEj5Xo3KaR+sLRyWZfAknsTQJL4TKZ/ASAQzDHpmqZRHOxAS2bKKFBSTtjZtRLhGs3j2Dnujo2jgxgrN6HkcEBlEoBbBgYEXU1tLDgGjHQaEeYmZ3DTKODC7MNnJlawKmpBs7ONkEIYDebiFyzBg2kHeT8mXlIqsXjCzE+/dgJ3PvMKdy5bxOu27Ee5cBUYVljy2gd77/jGhw7P4UvPH4s8QwTdXWeyyuToEzAXAf4h8dO4hvPnsW/uX4b9m4adY/vr5Twrjtehddevxf/8JWH8amHDxkrhvHOWgsGm30gbfy13fm77P3MNgfYj7PzWjkz22NmqvIMgAOcnYtw5sBpaD4Fa3EgZVp/kAIRp8DqwbcmINYErbXbcbKT9ijp9KfYHmflANgm5tmJd2+6agN+8r1vxNrBOsDATLONv3/wECqBOvhiAFgkEi2/qqZIJBK91OqCYCKKfueT9z3FwC3k4CutdpIimFBdEymmoUzSgvWfss3uhULAMa7bPIRrt63Frg1rsG5kACUPcjOxX4UImVZywYwQQL2sMDA6iE0eXRIR2lGM8el5nJqcw5FzMzhwZhrNKJnYpwFTOU67nflN3Mg8x0RT49OPnsA9T53Em67bgv3b1yM0wbeKgB1rh/Bjb74ezxw/j88/fgzjC7pnNTiX/JvZq7PzET7+9UPYNXoKb7l+BzavGUguAhSwYaSOn/jeN+Ctt16LT/zLg7jnmdNJOw1T/k22WXvPw25iIryLiGy3NcPKXR3sGMyxufzQ2axkkwBCxnNM3nFids5rbwd9SGeQzX8GwExgmJbQxs4BChKLiXmRMUdgzagFhJ959+248+Z9KKsADMZUo41P3X8I4wuMHcPqYXnrikQiWxESS8TLVykTiVayCt8kf/zZb/y3b56a/7EAlM5+MhVC1/+C08qqf7tdEUGRxp7RPtxxzVbs27Ye9Vol8RSzV90lC1xkGjt0bw7lJlMxF3/OkYHgPD5HWuPEhSk8d3oKjx+fwOnZtkEwg4jK8w9zdkjI/H1dX4g3X7cFV25di4DYZVwwK7RijccOncK/PHUajU4y0Q28mDeCugfclFJv2jaMO6/dhjX9FeetTi4pgKePnsLffekR3PfsWZBSpolFbqKZa9SXbVPsbCjOO53U29Ph0g5obRMPl3ThbUca41a0A5RcHCGxthB5aR2cNgZxjnCyqRU2a8/Acxzhrdduwg++/XXYOFJPfOMMnJqZx6cfPIK5NgNa48Zt9R/7t6/a+5cv5mQlb/2Vc0JeLrdal9vrbjlB1OX0GhArxPJ9j66EfZTzyqUpLPrl2GDtUTo1/2NsMl6zEGdLwwqE2ACOShIkWOPVO4bx1ht3Yuf6MSg/Rk0paM2ZLOGkOkhgAjodjcbCAjrttrslT4oQBAGqtRrKlQoCYwiwQJbEn1ExnDEjALBtbBjbRofw+mu34/zMPA6emMDDR84n7ZPdZD6vEZ4BeptQcHYhwv944Cg2PXMSb752K/ZsGjWTvBiVUOHWK7fg2u3r8Y0DJ3Dvt88hNhPD0kg0P1uYTTU6BXVbon3w+Wl88/i38P+3991xdlX19uu7773Te6+ZyaQXkpAiPSBNUOThAx4owk8Ry1NfAFHRh6KIFfWJoMgDEWzgownSpRMgoSSEkN6TyZRMyfR2y/7+/jhtnzN3JhMIkky+y08kmbn3nH32ueectb93fdf68LRSHD2tEhkpIfsYNWZPLMeMz52NDTsa8MCLK7F0c4sVg+xIF5xtG4sMt/7rFHwdKzSX+JKX0Aft6ozh8y02Azx8Rs5GvLP9nYDT3EhkBIFYqws32MN+LbHja6xcx45F1fn4f2d8CFNrKlxXiwQDaxva8Y8V9WAKQREQRoInVZY9L5e/4FC+YcsDUyAQCD54JCXBU2vL3nh+4x6XoJKPzDlxutrymWVLR3pkRTbOWjQZNSV5UKTcyF0HmoG93T3Y3bQHDc0t2LG7GXvaO7Hsna3Y3NQOpUKgUMj2ujU0u5qhE3EkEjFUlpVh3pQaTCjORUVJISqK8lBRWoSi/BwU5OUipEyCyV5aHRHCBJTlZqI0JxPHz5yA5o4erK9vxZvb2zEQZ2incqkssqeZfRywviuKP7y8BZMLG3HqnAmoLc51f5edFsFpcydi3sRSPL92F1bWd3v+xz4S6dJA7+828VS2T/EzG1qwfGsrTp5ZjnkTS5EWCVmSE2LMmliJmXVV2NbQgqdfX4eH3tyGuG1j5hFP8vbi7sa0oNP2n5DHWe33kuFCQcSujtkXf+xYoBmVe4IGNLkyGLha34SdfeJbYVhzTQzFGvOr8/HJkxdg3rSJCBG5czKY0Hhp3W68vKUNpEIIMRBLaJTlpjwxqSR7u1y6gvFAiA9mMnwoaYMlJfHAV8gEgsMBSS+UHua0G/7vpZamnli26wvM2q0QWnpPi9MUpodx4TFTMWNCsWuD5ZCw3sEhbN66A6vWbsbTy1djxY4WJGxZhEe0LIKmbEGsK0Ygsiud7Gpd01NTkZWd7/I9opDtQ8vIS4/g2BkTMLOuErVVpagqL0VBXjYMd1ufftXRxEbjCWxuaMerG5uws3MImrzGMidIw2v8chYBwOzybHx4VhUqC3LcajnbZH9XayeeXLUTOzoGbQ21Y+FmJOqNdEKMqnZ2KuHkGRWY65DhAJlu6erBy29vwgNL16KhZ9D+bcjdlyObICg7lMKQa7AGKWWoN1xfNl9ONBP7Pyjaq5Q7OmJmx11ZGbpj//uhyfomQMcBME49ogZnHz8Hs+qqEFEh3/zu6erF39/Yhl1dMVteY81wQSpw4XFTf1qRl/Xt9/Jgl8t+fD2Yx8NXrQfr51IkEXKtyTUqn73x/Fkf8c03PPTKM5tbB0/R5gvZcnlQBIQJOHFKET5+1HRkpkbcjv6+oSGsXrcJzy1bgbueWg5NEYBCVhCF7QLA2onbNZ0MTP9ZgyvascCOqrWosASkQvZX6R6pVe62rO0zJzCrsgCL50/DEVNqMLl2ArLTU2wbteBhW7StvrUTyzc3YVVDFzQrW/PMw0iqsq3ZFBhzKrNxwsxqlOVl+l6qGVjf0IpnVu9GS3/M9u2lYbrmYSdAUeCfhJwUwvFTSzF3YimyUyPemG1yPphgbNi+G6+s3obHVm7GQMJsPFSeFpkDx+yLPyb/+fAO2K0Gu8phs5mRDf8LRzPuRimbiw6gKjsFZx01FYtmT0FlUR5CTtWYrMXPQCyB1zY14KVNexDTIc+KD4CCxiUnTMGmDetu+ujiYy+Xm5U8mMfbA1aIsBARIcFyDxL8a89peKRf5KRFXmIMnGKFYtjByWTJBkKcwGcWT8OHpla5KtH27h7888Vl+O3fnkJ9Vx+s5quw67oApb20NGLA1ac6xDcB56UOEfNs2bxa7uDQADIysl1nA0e767oguN/hh7CmoRNrdi8HYznSw4SzjpqBkxbNwqwptchKT4PfwZcxoTgP1UW5WNzVh1c2NGL59jawTdCUnb1MRiqaJsKqhh68vXst5lXn4fgZlSjLzXS57KyqYkyrKMLqHc14+p0GdES1we5H6DPTjgEwuc163VHGk2ua8ezaRiyoLcS8iaUoz8+04qABpIUJ8yZPwNzJtbj4o8dh444GrNq0C0+s3IrumN8dwrFXY4atvda+RQeR0/jo2b+xofFle4xMHEiYs6Oz7UY7Yst/uDYvDR9ZMAXzp9VgYlWZ5WRs27cxW9X+oUQca+tb8eL6ZvQMabum7JqmQWvGWfMq0NbUgC07dy+Xy14wXm/m8jCV+TtcFi0CwcGAES+Wp1ZvOv6+13YuBSu7+UwhwUBGmPGV02dhSnkOiMJo7ejBI0+/hBv+9iyimt0qLIFG2HzQOCxhUrBRhmqR5lAohMKiEjiyBAB2WIRDLMmtbrKRKkG2g4GCpQ8+9/iZOGHBDMyaPBGpkbA7Bje6mIGWngEs29CA13a0g1TY4abWMYIDlVUCQWNeVS6On1GJioJs140XIAzEE1i1tRnPrmtET1TDl4/GSQixQ7oBXxVX2x7NE3JSsXBSCaZVFiI3LcU+bsCKEbHeG2PG7qZWbNm9B6u3NeLVjY3oilqLEa0ThpbYOwLrrcFzx4CzEDKlIazgJSJb+u2SzIjVLFhXgakTylFVUmgRX+O0s5121zOUwOodrVi6qRk9MUbYaMR07NiIgGPrCvCh6aW46rqbYldfflnNtPLiJlmtywN6vFaZDsbPqVSDhQTLNSqfufH4mR+xEnz8EVPeeGldU09LL2c739DnpRK+euZcVOSloW8ohiefX4rr7/gHeuLk40bkxAsjyG+1Qa7IJmyGq5hDpjj4VrJ9cUNgzRgaHERaerpNqNjH19jYmC8xjshqsiMgBuBvL63D35auQ0VuGi48ZT5OWDQXpfk5cEMhAJTlpOOcD03GCTOr8Mq63Xhz514wk013yXA88Ea6qqEHqxvXY0ZJFo6dXo7aknwoYqSHgWOmlWPuxDK8va0Jz29oQs8Qu0NjM7/D3ahtu2bsQ9vevbu6oti5sgHht+oxsywHR1QXYGJZPrJSw678IKIIEyuKMbGiBKcddQSWJDT27O1CY8te7G7rwo7GFmxt7sLmxjZEGdAqBMXKXWB4BWA7LpmthkhiRmYkhLm1JaguzMbEimJUFOehtDAfedmZCMFz1vMOxY7IBtDY0YuV21vx2vZ2RJmglLVPzZbUhmy9uFKEuZVZOHlODe594llkZWa+PrWsqEkueYFAIBAIBO8Vo7LnGx569cFNrYOfCBEhO1XhijPnorwgE2u3bMcPb/4rXtvWbGtOlZtsZhK44dDwV3x95UHYEQueswQ7pJlcj1uiEEKKUFBYNIKeYF8HSr4xWCRTg7TGecfPxMdOXIQpNZVuADEZJLq1qw8vrq3H27s7oZ2v/5P4ApMiJ4wO1TkRHDutAtOqCpEa9hYHQ3GNdbta8cL6BrT0JqCVGXIBw4WB/LPGgWNy2SqgkMDUkizMqMhDTUkuivOyEHIWBOSMVbv6ZGduEwD6BobQ39+PaDyOaCyBWDxhJb4BCCmFcCSMlLBCSkoKcrOzkBYJQfnm1fEl5kCxnxBnxp693dja3IXV9e1o7Y9DQ8EJlGPbHcM5JqWAsCJML07Hvx8zDfVNe3DW5TfgE8fNvOgnV33xblmxS5VqvFeZpBoslbnxdI6kEiw4WM/rqG/80/MrL35uY/ufIkT42kfnYFJZPu5/4jlcc/s/oHXC2ITp1eur/wXAGC57IJscww1YICOCl13tsPc1PREjMzMLGZk5GNVqYYQD9kZgJ92ZQRNgnDy7Bp/62AmYObnGqmrCH3/c1NGD51bXY/2eXstNIkD8nGQ6h9sTgOwUwrGTSzC3rhT5maluxTeqNbY07MXSjY3YsXfQYoD2nuycCZeMO/KKYIiIm/7GjorC0tRmRoDJpbmYUJiF8oIsFOZkIjWiLMJp634dbS7cIJB9hUCzV50floNnkesEM9q6+9HQ3oOtLV1Y19iJoQQhRGRXvMltqmPT0s1pgiPC1KJUXHDcdIA1vnr971DftGfP7Td8s6amMH9IblTyoBYSLARLrnUhwXLvEbzXcxse7ZcLZk966I2tbT2nza7MLspJw/dvvAP3vLLecmZQbGhxzX077UzKR1DZjtL1ypmGpy0H0uFA/pc5hJU9ItbX1430jEwQhYYR4WE03AiBYMMJzPl/8jzXQAS8sG43Xlx3DxbPqMSnz1qMWZNrfLXrivxsXLR4JurbuvD82t3Y0Nrnpp6R3dDG7B9LTwz45/oWPL2uGdPLsrFgYjHqyguQFlaYWV2I6ROK0Ly3F29tb8Eb29swpNltTvPcyyzdBBP8tm9usdpJrQMSROiJASt3d2NFfbetYdYozExBZV4GSnPSkZeRityMVGRlRJCZmoK01AhCNLy6a54X57gSzBgYiqJ/MIrewRg6+wbR2j2IPV392Lm3F0Na2VHPHunVbgyzodNmR/JBrlvFlMI0nHf0FETChNv+7ym8sqUJJ9Tl/+bdEmCB4FC8oR9sD9hDyTdYIBAIxoJ93tD++NSyPx93xMRP//dPb8UbO/Zavq8MwK4Es1vJNau4/goufKTKT4CDVWCD8hrbNwqt5PkUZGZkIys71yZ4SbrLkv9o1OlwwyGUl6928uxqXPLxEzG5thIUsBnTDOxs7cKza3Zha/ugVQU2giGSz4BVKU4LAQtrCzGrKg/VJQWI2DvsHYph/a5WvLp5D+q7hiyfX+Xlvo3Uc+gRcNs1w2b9bHsEUzIrYFuKEAIjpBgRRUgJh5AWCSElEkZIWaluWjOG4gkMDMXQH00glmC7pdGpzttewfZ+HY9lMvTens+0XUd2K+fW9jWAOeWZOGdRHVIjwNPLV+PqWx9Bhu7vuPrz50/99w8f0yYrdqlWHS5VpoPxcyvV4MPnupJrVD5nh8Pnf59vWrdt17lX/fS2+9c3d7qEyiOvZpQuBzbrj9n100AKkGKPGLNhI0ABIYIhf7XoIAEFBcUIhSNJ9kNu65opgeBkwxg2UnKdIDynWsZZCyfhwo8uRm1lqdXoZTtREFn17/rWLry0vgHr9/R6WyQFdgJCYDM/JtcPOGRLF9JDGrOr8jG1PB9VxbnISA2DwdjT0Ye19e14c2sbOqPa8/x1SK+yqqsuuWVDp2z4+0KRj5C6zWo2ObbcM7yZ5+Hdie7fObCkYM/VzXu5LRNhp9prp8aZXxyE4BFzMOP4KYU4aVYVlEpgxcYd+NKP/oze/n6cMLXo2rtu+O71cqOSG5aQYCFbcs0LCZb7juBAnd/wvl5QVVv9TCSk+ok5gzkBJxvXI40GAWYjLYwII2uAk3NwDjTUWdvyyC8HyDQz0NPThbz8Qh/ptbimF/vLRsXR3TMNN7AIsj53PDZze+TNbXjkjS0477iZOO+M41Bd6jXnKQC1xbmYUJKLhvZuvLqhEe80dltNbcomgiDPK8wg0ZqBfia8vrMLr+/sBjiBqvx0TK/IQ01RNo6bUYUTZ9did2snNjZ2YNXOveiJaqsqrOGlsjk6W/as3Miu5DKGk364zhM2iWYe1tTohmMwBfgwm71vw+bQ8gq2f+fEWZNfJqIBhAhIDwFnL5iAWdUlYMSxdlsTvvaLexBLJFCThc6LP33ezXfd8F25wgWH5U1dHrYCgUDw/mCfJDhHUddl3/7x3XpX/DJbJ+ARYGY/hSQyGqb25ftr0iwndpcDWmJPE5vsKUAExGJDGBocQFpauq/a62Zm2CEfQXASKs5JXsEOezaI5r2vrMN9L6/FJafNwzmnHIOywnzviBmoKsjB+cfm4MM9A3h9cxMIH9qbAAAgAElEQVRe3dqGuN2ERoafsUfM2Z1PJktKsn3vILbtbQahGcQJ1BRmoq44G5UFWTiithgJzWhq78Hm5k5sbe1BjEPWVky9sFONdXi8Sn4+HDcOx5mDAwsTsg/MrKIz7fus+nzSnPWErVyxvkfQmJCXinOPnoyinAwAwIYdzbjiF39D31AcQwM9OHrREdefMmdGp1yqAoFAFg8HrgImEAjGxlJx+70Pn/SjO//xPKuIXVUkjyGZjNQkSVA2uQpqgJODfWbByf6ebORWtphSCoWFxVBKBQqZw0kdjBG5MmL2z0awzu1rrHN5taV9jSjg0o8swFknHYXivJzhNJoZXQMxvLW9Gcu2tKA3yl512syeMOZS27bIWhEU2/+2h2dFVjPCAPKzUlCak4a0tBS0dvehtSeOroG4cRxG5TVISANQ7Ju2JOKSJGciyTqHvNWHW0V21eJ2pVlrBkHj5OklOHH2BKSELSO31Zu248qbH0B3fxSD/T04c3bF3uuv/vLctHB4N9G7u8dLFW38P7glklVI1+F+7R/s50MCbQQH6zlWY3nRJ88/+6WFkyvWEBm11qA/LvstEYi0sQseIwEGnEY5g0YGoB2W7bXWaY3u7k7j63mHNSYhwMw+cug0cLnk3dbUagRDPAJ6YvvHcQ3c/uRKnPftW/DHh59FS2eXj4QSgNz0CE6aWYVvfHwBPn10LeoKUqHIchoOmoxpmxAzseVETIajL8EN6ogyYU9vDG839mLZ1r3Y3DqIrsG4PzhkDMsdh1xqGn3aPVs0Y4NJiCkbHwVPo+xNJjOjrjANXzltBk6ZU4OIsmQnL7yxGl/51b3oiybABKSpBC6/7MKsxubma+WyFshNXSAQCAQHGmMiwVlEevrEijusUIxRGFVSSuREPZjSCTZ4MwfI8Og+taY/LRv1yejQEAYH+g02OxLpg89qDYFRmWEVPiI8bCTe8TAzYky47Yk3cd63f4c7//4Mmto6oZ3IZtu7NyVEmDWhGJ87ZQ6WnDYbJ08tRnaEoGxrMyc4wnNbsD1/yVQWaNftQbOVsrZPz4sRZRABTTZ5f0Y/ZnPSyL8Bo2TuEmEwFDGK0xU++aEJuPSU2ajMzwIBGIzH8Jd/PIOrb3sUQwlr+4nYEK677BxkpqelrN245bF3WwUWCATvDw6FStjhsniQRZJA8D6TYAD4zMUX/r6uIHOvL4Y4KVMaLj5gdr4Kt+26ENASw0/8jB/5f0bK1dB6pMuTLfT0diORiHt6YJNkB8u65k7gF2z4X8lJU+GcRjKXyNukL6aB2554E+decwt+e89j2N7Y6hJbc4+leVk4ZW4dvv7xBbjkmDrMqcgGcwLanh025thKyqNA1dj+H/Ow5YX7Mx5OdP2navixjeXJRsle6CWOuOfYsa7LTVU4Z14lvnLGPMypLUXYHlJrVy9+eOu9uPGhVy3PadbQOoGTppXi9MVH4bW3Vr/z0VNOemQ8P6iFSAmE6AgEct8SfDDnZ8wkeHJxfu+cyVV/dMkij1JqDbAqghWt7JEolYRYJokfBrmetxbr1CAOSAjY8RmwCFd3V4dBCNkeDsPJ+PVcEsioJ5uE0rRt8ztV+IbJSQilEQHNWuGvL6zBRdfdgZ/c9gDWbt2BuEtYvYVEJESYVlmIC4+dhmvOXoBPLqjB9OJMKNauBljZY7SYurKqxnalGkR+mYahyU0mxXYJtf3H162HsdX4eZi+mNxqtzk3FdkRnLegCpefOQ/zJ5UjJaTc96/csBVf/OHt+OeqnVDKlswkNCjWhys/ex52NTRj5er1vwt7uhqBQCBkQCAQCA4Ywvvz4hOOmX/j8nW7vtLcO5RieXMlE4+yz5eMkzBG5rHdO9nQkZq+xEl9au1dxuNx9HR3IjsnDz6ubnrUso/W+hrCRh5MgAgTBVySAxIM5URiEB55cwseXbEVCyYW4YLTj8bC2dOQnhIBs7a9dC2ym5ueggWTyjB/Ujl6h6LYsacDm5q6sK5xL6K21EAzbAmENyY3UIQM5S57MdP+5D42FivDZSM+6zTNSeeEtWGDZ3QOMhghaCyoLcCRE4tRXZSDUKAK3tM/gLsffR5/eGYVWGvPJYM14rFB/OTzH0dFSSH/6KbbGz978QV3XrPkC3KVCgQQuzSZs+THJ2dZIPgXkeBzT12864vX/Pzu5tW7PuOySh7OorwKrE3J2JZE7O/oyPD+tb9ut7ZhVpXt8qfNhJkJg4MDCIdDSM/I9nsPJxvv2AYSpMuj+VYYRNn/oxU72rDi9sdRmvUMPnXKkThuwRG2vRobxWGLxOakRTCnphRzaksR04ymti7saO3GpuYubGnrQ8Jqm7Nt0Ayib6pVyO+TTKapxwjzwGwEWASPkk3JhaP1BVJIY2Z5HmZWF6CuLB/pkZC30LCt4WKJBJa9tQ433fcsGjoH3QWCbXQMnUjgguNn4uTjjkw89eKrak9bxy9riwsHpUo1viFRvHL+BIJD6fMuszC+7kvh/d34ScfMu371tqaLGnviER+zctgVDzc5G84YR6eQ5HzFbzo3uHVX7Xu/J45w2J7F4Hp6e6DCKUiJpBrD82fCsa+1bj8ZLSeJnAscnrM/N1kOAFhjT/cg/ufvr+J/HliKM+bV4YzFCzBnah3SU8L2mDwGS2BEiFBdnIfq4lwcP6Ma/bEEmtq7Ud/eg53tfdiypwvRBEBKWS7OyogwZo8oc4ANkzknNln1C2TYCMYgV29MnMCEwkxMKclBXWkOKotykRYKBU6iRYA1Aas3bMUdDzyLN3fu9Z8Dskh3QmvMqcjGly46K7G7eQ/ddNcDLT+65srbbv3xNXI1CwQGpBosEAgEBw77TYIv/Nip215c/tadjau2fyEJe3UzdCkQUUbQdhCGTSrNCDGj6WtsUgkNX3XWNPB1fs+Enq4O5OYXIhSO2OMZrvHlkUi4kehmHppJi31+CaYfL/u35R1XgHKTwuOrtuPxVdtRnp2K8z48H0fNmYa6CWUI2xnGRowFmAFFhMyUECaX5WNyWR4YhAQBPb2D6OofxN7uAbT3DaG9dxBtvUPY2zuIGFu2amRISRwaTGT4JRuVcgIjDI38jFQUZ6eiJDsdxblpKM7JQEFuNtLCCjTiuWJEExrvbNyKux9biqUbmzz9sTmDRGDNKM8g/PBrF3M4HOKf3PSn0OzpE//nQ9Mn9snlKRAIZOEw8nHJ2RUI3hve1UX0wLNLq39x+/3rGnqjWQQF19t31GY59kfvGnrVsSkUCEDC+HtyLwdrd87PFFRIIT+/CBQKQQW0wO/LhJLZzDfKpDvV2UA1WhFhUkk2zj5+LubPnITa6nKEkqwzgvtMNgYGkGBGNJ5A/8AQBqIxxDUwFNeIxWJIaO2+PiUURkokjEgYSA2HkJGWitSUMCJKJfmgcJKZtwh2d18/Xn97A/765DKsa+wcdXFBIIQSQ/jDdy/F5LpS/Yd7n1B/+ftz23567eWzj581deDdnoPxHp5wIDEe5upwO98SnjE+5uxwIsFyn5HnysE6V+F3s+FzTzmh/svf/fnNDSu3ftvS/5qpcMmTFvz+wk6Ub6A6PCo4QIBHTqKzdKiWNEJrja7ONuTkF4NUyF8RHmuys7FnDg4piUpiXwTYCZFwkud8JJMI21p78euHl4EfehWlWRGcedQMzJ1eh0k1FcjPybYrsJykuuqMwZvtMBHCkTDSI2H4zwL5DsGtONsR0RyIxggeBbNXge+PxbFhy068vHId7n1xNeJQll8HkTVWshZAZkAJAOhEFLdefTGm11XxS2+uUj++61FccNL8694LARYIxjtEEiEQCAQHBuF3+8aLP33eTzfV33LpptbeUreiCxWgV0G2GCCupMbYqObQsRCSVX5HZqsagEI8rtHT2Y7cvKKA7/DohHYkGj7a62k/tuHXx3pda0wE1hoMoLl7CH94ehX0P9+C4gTmTyzDsXMmY9rEStRWlaEwL8cYRnCeg4dqSjM4iTUaueycnEZDM9XOrV4D7d092LKzEa+/sxkPvbwGvVHtpsoxBSrh7C1+rN8DOhbFr5eciyNnTEZ9cwtd/rM/YW51yRvXXf3Vv/78W/8lV6ZAcAjhYG+QG28LB5FCCAQfMAk+ZtrE7qt/9tv/3tS6+g7HhJdsNwAQB+iXsiqzrs0YDSOB+0E/R6fLrj8YwKxcFWw8HkdXRxty8wqglLL72mxrL0O+QPBy6ZImpPksv3gEsr5vSu+zVBtWTeZhR65AYAphxfZWrNjeClKEEICq/AwcNaMaU2oqUFlagJLCfBTk5yE9NQUIeCoHmfpI5JkNezvNQFdPP9o7OtG4pw1bdjZi2TvbsLaxAyBlxTwHLfBc7+Lh+2cwOJ7AjUvOxXHzj0BHdw+u+vH/YijBev7suv/KIEq814exPKQOPXIgLgOHN6kTCA72RZ48V8bncyX8Xnbw/W98+a5NO77zuZX1e48lWAU/BT2c+tjEkaE9y7MxEMZAHXIMBNjzDfYIpXLDMGLxODo725GbV2gFNDiSBKLhdNuVKpgtcAZRJreuGeSWSUmvz5KXRubMwWozk+HiYNifkU02d3YMYNeyTcCyzWBiKAYICZTlpGP2pEoUZqWhrLgQ+VnpiIQVUlNTkZqaipRICkCA1hrRaBRDg4OIRqOIakZLexdaO7qws6ULa7Y1oGswbtFwRSAoW+JNXpSzbX/nzAUxQxNBsefY4fJ9HcNNl/8Hjpk3C4PRKH54811YsauNT5pa/tdvL/nCa9dd/kW54woEhyhRkIWMQCA4lPCeSHC6Iv37+x9bsv2ep17tGIqnwP4qHKwNluc3OfPIrfOTkaqq+w/mZLpk9u0zEU+gq6Md2XZF2HkHkX88BLaIrjZZMRkE2fuWnwyXhaTjwnAnuTFxezKkJSZxZs+uDARoJoA0lCY7dllhd+cgdq3Yah1RcH9G9dapiFMSuzd27JdVBG59nLzGRieow5wHZ24UW2TYdeFgRm6Kwi+/dgnmTp6AaDyKn9/2Vzz0xhaUZYb3HDlr8hVpJM9PgeBQq7bIfP3rj0POpkBwYKDe6wY+d+5HV5xwRO2NsOp+gXInuc4QZrMWYKb18ggEmMZcBfZzJ05KQtnWCDMY8YQljUjEY+4GiJQdJWxVlF2SaW7TruZqANpNCLb+oke7tZquaOwEYpCPXOsRZkHDIr3k/HEXGt7UkZ2hrJmt7bA1PoJzVsguXZOxKCDPG9hQcTPIzR4BAEVW5ddp4POySZzmRsuW2E22Ns6e+zfNmF6ajduuvRRzJ1djSCfwmz/ejzufXgkw81HTJ1y15DMX7D0QlSh5SB264xVCd+hDzqFAPtPyXDmUnivvmQQTEb76hUu+v3BCwRZfw5VbVFUGKQqqbC1nCSL2kt98VBnwVWCT7p9HIdLBbTl2bho6kUBnRxtiQ4MIqxCgFJT9x0250xqsE2DWYPt9ZLf/eYdISNiskY05ISIo+4+rNyY7yMJdH3iSAoXhxWGHiCYIYOVNg4Ly5jeoPHGS3NhrUnPm2an4ksOHlbdYYd/GvJ9p5xwaVXD3tHil6mFZIWS/l1njYwsm4uZrLsWkiiJEtcbv/vwgfv3gC0gk4jiyKu+J6797xT1yqxUIxv+DUSAQCA4mhA/ERqZVFA3ccPvdF29rWb60fSAeMVvMjBQJI783OVcl9jvQWlvQNmMLSCuMzTGP9hxgzzeYYZA9jfLsdCyeW4W6CVWoqSxHZloY+Xl5SEtLgdbaJsV2zZYtmYfWQFdPH7p7etE7GMPu5lY0tnfjnS0NaOjqB6mwz/rMYaYa8IVLuC4JZEsH4BeGsJO+Z1iusXsMPIKKJJltnG155jeDcGdTkzMu75faMJhwSLUvkM/cVWAYzgKBQUgl4FsXnYYzFi9CJMQYiMVw0x/uwy0PvwwmoCIz1HnCwpmXZRNJ9UggEPxLFg2HcrVaFj0CwUFIggHgG5d98rVdDU0/eeTNrd816ZbnvGA4ECTVxBpf8yPg1pDMgWBMBBgBrav3r/L8XMysLUXL3h7sbl6DjPRNyMnNQVokgoy0NGRlpSM3KwMlBbnIz81EWUE+cnOykZeb7ZbPCVaVWAPQrNA7MIT29k40te7FzsY2vL25Hq9sqIeGAifYbRlUILAy/ILtA2IKuGYQhi0nyBT4kp2dx0Fqa/7bIMIjzJG258X1UGbyvCKMU+ZfwHjR1uYvtL1oWFRThG989mzUVpYCDPQNDeJnt/wZf3zmTUARFCd44fSaK6689FNNB+LzJ1/Djg9yIM1Vhz7kHArG02dZZmF8P1cOGAkmIvTFE9c3Lvn+qSt2th/riEQduYKTEGZ0e3l5vU7Uss2lTGK7L5LrJ3zJ9MCmFZnXANbU0Yumzj6brisAjJAiZGflIBwOg1TIJc5KOY4IjLQQcPysGkyqKkZNZTGqy4pQXlKMtAghLyMVeRllmFRdhuPnA58CYSAax47dTdi0owFvbdiB59/eisEEAwhZ0gj2j9yaJ88WwhmvlwLnEWB2SaytbEjamefV1hmB/rrArGmjgs1Gc5zPJ9gsBRuZIxoaUIQMpXDV+Ytx5uIPIS3F+ni1dHTiul/fhcdWbgFRCMwJLJpY+rebrvvmH2+5/upxd9HLrU9wOD5oBAKBPFcONYQP5MYyw6H4XX9/4uLW+59+Y2fXUEHQeddzSXDIMHtWCWy0UrnVTg1XU2xKAnylST/ZGxU+n19TIqEBBuKJBDo62pGdnYP0jCwr8QxWw5lDMPtiwJNvbYNesdXdaIoCTjyiFotm1mF6XRUmVlcgPSUMYkZ6JITptVWYXluJs048Ct+IxbC7aQ82bNuNpas245VNjVZoCADNVuCEMmTVHgNlH3tlYy6cRjiFkefEJboAFBuJcORFkJBJfu1x2DzdXibAOE928yDB1k5r/NvCKfjceR9BVUmhO8Prt+7A1356Bza2dgPK2kpNTuqWM0457kthJde1QDBeK2gH64P7UF00CBESCA5yEgwAn/nEmduu/fXvL7nvhbceHohTCK6VGINsKuV5yhpaX5/IF15ymdvcZRNh13d2+P2AAnICp3pqvMD9D9uWEWYF1mGZPT3diEajyMrNgwqF3NAJZnb37HoLk0KcGc++U4/n1uyGUgoRMM5cNBkLZ9ZhWl01yksKESJGiBiZaSmYUTcBM+om4JxTj0NHdy82ba/H8jWb8cgra9E5GDekB2Tsi71xk6fbZbfa7vfqhW8JgWHh1H5ZBUG5QSZeVIh/a/Z8OhZpIDBrQGucNKMSF599ImZPrUGYLF+5qGb888XluOLme5HQFsEHKeSlhfsWL5j+yc+fe1b3gXzgyqUsBOpwrxTJdSAQHNj7kMzC+H+uvG8Pmv+6/lfffeT1zT8AlBfT62SlsclJzaY39uQARMNImCcOcCzX/C14JgkeRoD9PNh36NbrTW2rLUVQCtlZOUhNSweYoTlhv0sNH5Vj+qAcrzCGZgazxsyKfHzkmFmYP3MSJtdUI6K85jW2ibjWGgOxBLbsqMdb67fh8WVrUN8xYFWJ7SqvZUvG7nsIlnOEMwa3iW0UOLJff5McDXPtcP/DtjOFM78EaCgoYpw6uxrnnX40Zk6qRVgBihhaE5r3duLmP/wf7lm6FqTCruUcgfmC42d8+Wff/Oqt4/FmNR6I26E4l3L+D96H9sF6TUglWO4rcl+R8/++kuAOZvXVr//wwVc27TkbAJmeu16lFn7iCSNow43etXWzRIbk1SPUROzqhr1iMrnbHrEqPALIp3u17M1C4TCysrIQDqcYjX6U1G3BxyOdaqtN9pUiTMhPx9nHHYGj5kxD3YRKhIgsuQXYS6gjAhOhvqkF67bsxNJVm/DSunrEGWDN0Fq75FUbiXcKfqeHYa1wbnQdDTtmd0ZtlqzZCgtxehWJCGGlUJGThv84+UgcO38mqsuKrb1oANAYijOeX/YmvnPTX9E+GAWRAigM2M1yR9cV3/iXX117ZfgAh2LIzUoeVnL+D05ydzBfE4cSET7U7y1yX5HnysE6l+H3a2f5RPqxZW99uvX2e17Y2Nq3wGOGXoKb3xbY+XfQjsBPZk2WSRRsnCM3IpndSGQn+Wxf5yBZ0pwlfojHh9DZMYTUtHRkZmaDyFTRjvD+QEKbM476jgH85tE38NtH38DEwkycs3guFs6ZhuqyYoRsVwxHD1xbUYLailKcufhD6Ortw8bt9Vi1cSdeWrkB65o6QBSCgnIrtAEm6x4FvN5Db8FgDFMzuzV1S3Ji/04zWCdQnpOGsxfPxaIjpmBmXQ1SIyH/FhRj845G3HjHvXhsxRarAdGtyidAWmH+hMJn/vvKz30zLKlwgjHeNEUSIedRIJAFkuD9RPj93PjHjjmy95d33nNO7z9fW7q7O1oLOA1fwxguhrNHpx1rZHDAGixIdAkjRxmPuk0y+9G8qvPgwACGBgeRnp6B9IxMKNtBwtQtDyfWBh3VDO0k6BFha2sPfnH/UuC+F7FgYjE+dsKRWDh7KkoL86GMrjgCIzczA4tmTcGCmVPw2U+civauXjQ2t6C+qRWbdzZjxeYG7GzrBpOyLdu00UvnWaC5VJ3Z1RUrwGoCJEBBY0pZLhZNn4DpdZWYNKECFeUliNg50a6Zh31oDS1tuOfhp/DbR5ZbZFrZ3m92Oh9rRnVeyuozF88/f05NVWy8Xkjj5UEv2lKBQCCQ58rh8lwJv987uOqzn9z9g5vu+LcHX1z54t4BnecZNFASAmzGZIwVya3RsN8EmH1/ZdDw4q5dsR4YGMDAwCDS09ORkZEJhBSIfanE9uvJNxanuc4pzbo1WVJYsaMdb+54BmH1LD48qxqnHzsHc6ZNQkFutv1+632KAAVGaV4WyvKzsWDmFABWbHPf4BDa9+5Fe1cf2js70TsYR2t7J/r7+xFLJMBGO6IiIKJCKMjPRVF+NnIy01FWlI/ionxkp2fYKX7kI9NO0V2DUd/QjH88/RJueugVxJlAUFAqActow3JDZk6gKCOy4/Rj5pz1+Qs/0Sm3NIFAFjEyV4cnERIIDksSDADXLvnc6qtv+M3HH391/eOdUc4mI67XYo/aoLS2/4Lxtfzo0O5X+AfmbsZJ/xpw8wUADAz0Y2CgH6mpaUhPT0c4khIg4ba8YQR2zna1lwzSzCA8v64BL6xvBDiBk2ZV48QFMzFjUg3KSwoQssm4o0t2xkMAslIjyCwvRXW55xVhvcw/PxQYo3mMZEhT2LW2sxLv+oeieGfdJjz45Au4/9X1oFAEVqQye4sXCgGswQyUZaV2nLJwxse/t+SyernUBPsL+SpdzqNA8EF8XmUWhAQfcPzsm199eckPbjz7ubc2P9oTRabXVUa2Ty77CKIvqte2VnMs0thHTPdf8jAsQ3h/OTL5tzE0NIDBwX6EwxGkp2cgLS3dbTbjpOl4XjXYCb3wV40994tnVu/C02/vBJhxRGU+Tj5qFuZMrcXE6nJkp6fBcdtwYpY9KQf5i+12PDIzwR+iZzYMOvHK3gsGYzFs3Lody1auwR8efgF7+uKWxlmF7PEb7Nq2kaCQQmEqek4/aubHfnTVl9YcDhWl8XY88iCQ8ycQCOS5Mt7vS+F/5c5uuvaKF77wnZ99/JW19Y/0xTiTg5pZV8PqeQg7iXOmp+3IWt+RpRH+l431szVC85tjm+Daulljjcfj6OnpRm9vN1JT05CamoaU1DSYdmhWExsZmcR+Ts1aDzskxwXincZOrHnoVShaBgXGosnlWDSjFhOrS1FeXIiCgnxkpqUgTCaRNRLoAo4WQSKsAfT2DaCppRXbdzVg5ZpN+NsLK9Efg233xrbjg7cAsar45JJ+AMiNqO4zj57xbz+66ovL5FYmEAjkwSxESCA4GPGBXGBX/PCmU59dufnBnhiy2ZVCOKa05v3I/qqdySN1viouI5iFwTwaGeZ3ecgEYisW2G/DADDrwH69/zrDTE1JRUpKKiKRFITCtrOCIxImLxbZkSAg0Ceo7bErdpwjyJaMsN1vlwBri+xWFWRi4bQa5GWloqK0GNnpEYSUQmpqClJTUqEUkIjHEY3FMDDQj1hco6G5Dc1tHVi+ejPWNLYDCPnGFWw4DPowE8iaG1IoTAt1nzZ/8lk/+9ZXlv6rPk8f5ENsPD+kPmhycCjZGR2MnwOxeDr05mo831vkfiLPlYPxef2BTfR/fvfnJ76ydtcjXVGd7SOpQacIJw3NrBK7fNiJZGZbUmHKIw7cPDuxHezT4TrQ8HyOtW+sJhG2fs5QSiElkoJwJIJwJIJIOAUqpDwCbPJ1AEzOfoEQ+8NBGAxi14fBXjeEvJFpjUQijngsilg0ikQ0ing87tqweTIMNab5MolvsjkuzkxpP3XhtLN+9s3/XC7rS4FAIBAIBAczPtDVxlU/uvHol1Zvf6ylN1pgjUR59I5hhUcoR37g6IHZdZfwEWMwQCFf1dILtkh22LwPwmeESniJERhme+abRlMeYf5cO9Ee3k9tWYSTxBYOh6GUQjgcBkBQoRCUciQMZFmPOYHGjmaYtSVT0BrxRAIAQyc0EjqBeCzuzoFPP+LqLsxDocDxjE6CXQJsBGsUpEe2nbFoyjk3fHvJO3JZCQQCgUAgEBK8D/zolruOeHzpqod2dw/WWfIHr85pwfQK1jYRDjojeB1hzAfmkFyXBHf/Osl4nHGG3PHyGLv0PHeHsb2e7QQ6J+LYC7YbSeLhS8848CfOJuKaGaXpoVXHza0766bvXdUgl5RAIBAIBAIhwWPEL3//l9KHnl/x8M7OwaMA5YZpBF0TTHLsSiFMMmhXizXINe11gixovw7VdNSFW3Um8hr2vPEkIasjEtIgCd6f0+RVXnmEBreRjiV4moPmGH5SPdp2lI/ss05wdW7a06cfNf3871/5n91yOQkEAoFAIBASvJ948LlXsu5+8Mk/vrGj/ROj2zdomws6zhFBrmfLEZhAaqz2aX6i6KTasY/AKmhi07AAAAh3SURBVIxUDXYVB0QgmO4OyiCe7Nt+8qnX8FdwA9Vi1vBkI/tDgkc+1WbhnJLwel8DnF29ZtZgndDTijNv+cqlF151zomLonIpCQQCgUAgEBL8LrE3GqOvX/uL7y7b0PC9/jjUMJsEaE+fO5LXL1taXiaHwI1w1JycMJLbjGf/ywmNsMkgBUmo1Zlm+/0yyIxy9r0nSLZpDKTcqDg7TDvJ+5I5OOzvp8CO1hjWmEjucoBdEpwe4uiRtUVX/vlX37slROLgIxAIBAKBQEjwewYz46of33T686u2/KljQJf6q7EaniyAhveokUeE/bphP/F1KrHJiKNbhzX5oLurZDplM2jCX002G+NMUusjrfuUIYzWtGa/+X2S/QaJNkDIivCOBZPKLrjrhmteJyHAAoFAIBAIhAQfWPzvfY/W/v3JpXdsaOk92fTkdZwJyGS0JluFVyF2SSn5SaPyuRwkby1zbYnh7C/YyGYkvI2Q2UxmGIbj72t67I5SkU7+S/ITX+dn/N4Z8Eh+wCByXeqqsyOPfHjRjC9c/7Uv7pFLRyAQCAQCgZDg9wkrt+8K//LmO69ZsbXlmgGtI2D7q/mg9Rmz97W9L36Y3MQ1T+FrBl34p4J8ZFl7ccO+qRpZF4ykRJq8rjMe6ynZh6vD2BzN9r3pUXbhHQ8jVfHglJKsb9/682t/PaEgW+JYBQKBQCAQCAn+V+DrP/71wuVrdvxpV/fgdK++aupmtZ95sucgMVyW4D98J+lt+Df7OjBFo1iacbCJziPazv4da953J1tgj5AHbR3252QHK9CUvIrMzs6gUZIeenPhjOpLb73+avH/FQgEAoFAICT4X43HXnkr88677//+27s6lkSZUoYHYXASVmi7OrjaBh049KDzA/mIoFfJNQguDye6VvSzZ6dG0LYUgwxbteC4RvL21UkId9AyLkhe9zMOOlAJ9kshGBpAKnhwUnHmjy+54KwbLjrjpCG5VAQCgUAgEAgJ/gCx5PpfzVu/rfl3G1u6jiIK2eFrZBPRICGmAOtzGa6R/jZSGlxwlkziOTwpjg3tBBlyi+EkWMNzLSaXcPt256teBzv6kskq3iUJ9ukqXHLP5ZmRZ2bUFC+584bvbJBLRCAQCAQCgZDggwTb2rvCP7zhNxev2tr8071DXGwVhdkN0BguezClE17Yg1dJpv2aEmZtv1fB7w7hkN6QS4z91WpPa2wSXScG2W2kcyUU79H6bD8/CjkR3j6ruujqH1x7+QNTiwq0XB4CgUAgEAiEBB+EuOXuBwueeXnl1zc1d/1Xb5yzmJ0qqQ6yVu9wkx6xRWZdr9yR6a+7KX8THeCrBhuVVaIQgrKGZHIHk+sO37b9XgZwwG3JGGmKO2oKMn9xzLypN153xRf65bIQCAQCgUAgJPgQwHd++bvK19Zuu3Zne/9nohopfmmEyfeCJNgvI/CT4KAdGhsNcMkkC9ogwWaCnNdk5g/AGN3c13E6Hm4FMbb3J9+m/8RHlO4vTg/ftnDGhB/f/P1vtMrlIBAIBAKBQEjwIYjv3fj7qctXb/zWtrbeTw3Gdarp0+tpfk1HiSAtpKTkGEDyYA03Z1jZJNhfuSVwEq3x8Ca8fdPWkZroxkaC3bY6Wy4SIfSVZqf874JZNb+6+TtX7pbLQCAQCAQCgZDgQxzMjK9d/6va7Q0tV2/d0/mprijngMjQ8JrQAWLMARJsOEAAIF8l2HOGIFLweQvD8y22fmcSWmVoivldnAo7uWKY3njk+XAaB7Mi1FaRk3ZnWUHWL/9y4w8k8EIgEAgEAoGQ4PGIn97+1/y33l7/+e17Or+0pz8+kZQCELKJqlMJNpvbzEqw/Yc967OxEVT7v66EVw0jsCNHII8FOgmZH5kAg5kL00ObCjJT/ue0Exb87Vufv6hbPvYCgUAgEAiEBB8G2NzSHv7trX/+yJqtDZ9s6Rk8vzuqU0DkVW3J1Px6jg1msdbS946NALvaYpvzstlux9og1KZrxWhk1hmnsn3XzNMXINZEIGakKnQWZoQfrisvvOtrX/rUi/OnTZakN4FAIBAIBILDiQSbuP2+R0ueW/r6vw3G9afXNrQfHdUqxXVyYA3tpsi5nNIlquSoa4cVczWGyynUPqZ5X96+phTDiYp2fkV2KIfzW+tvYdJDdQVZL2dnRu5evOjIv1/x2fM75CMuEAgEAoFAICTYo5jM+OPDjxc//syyc+KsztvctPfYrsF4lo+aEoEcv16bEFtUV4M5KHMIOkl4cgivkmtOOWPkRjzDTYK1TYJdCu5qgRUBWRHVW12Q86KOD9770ZOPeWrJJefvISL5ZAsEAoFAIBAICd43Xly1PvOhx546eeuu5hN6+ocW13f0LYqxUqTCRgOatgm0mVocjGsmjwC77hBAct2xSYHNoAxlSzMshwmtnWhmRph4qDI34/Ws9JTnS/Kznvv8/7vw9RPmTBuQMygQCAQCgUAgJPg9IcGMldubch/++z9ObGztWNA3GJvVNxA9orGje1LHYDxk95vZtmnBeGaD2BIB7MgoAh7DXmyca79GrosFgaA5I6Ti+ZmpmzJSw2uLcjM2KcJLl11y0atF4aG+2bNny4kSCAQCgUAgEBL8/oKZad2uPZn3PfSPyXva9k5vauuqVSo0pbWrZ/LUyvIpDW2dZVua22gozgApkFIBCzN2/8OcgCIgNz2FKwvyGrc1t22vLMzu44Rez+DNk6tK2wn8xpIvf27nrKoSTVYWs0AgEAgEAoFASPDBiRgzvbOzuXj9hk0lGzdtpY3btmNoKIb0tBQUFuRhwbw5mD19xu5FUyqlaU0gEAgEAoFAIBAIBAKBQCAQCAQCgUAgEAgEAoFAIBAIBAKBQCAQCAQCgUAgEAgEAoFAIBAIBALBvvH/AQLNe8uwtDm9AAAAAElFTkSuQmCC;" parent="1" vertex="1">
          <mxGeometry x="-10" y="721" width="133.87" height="35.89" as="geometry" />
        </mxCell>
        <mxCell id="rP8gSa3ibuYR4lZSBPFA-46" style="edgeStyle=orthogonalEdgeStyle;rounded=0;orthogonalLoop=1;jettySize=auto;html=1;entryX=0.5;entryY=0;entryDx=0;entryDy=0;strokeWidth=4;strokeColor=light-dark(#3F6B63,#EDEDED);endArrow=none;endFill=0;" parent="1" source="rP8gSa3ibuYR4lZSBPFA-47" target="rP8gSa3ibuYR4lZSBPFA-35" edge="1">
          <mxGeometry relative="1" as="geometry">
            <Array as="points">
              <mxPoint x="810" y="610" />
              <mxPoint x="540" y="610" />
            </Array>
          </mxGeometry>
        </mxCell>
        <mxCell id="rP8gSa3ibuYR4lZSBPFA-47" value="Acquired resistance genes" style="rounded=1;whiteSpace=wrap;html=1;fillColor=#dae8fc;strokeColor=#6c8ebf;fontStyle=1" parent="1" vertex="1">
          <mxGeometry x="750" y="420" width="120" height="60" as="geometry" />
        </mxCell>
        <mxCell id="rP8gSa3ibuYR4lZSBPFA-48" style="edgeStyle=orthogonalEdgeStyle;rounded=0;orthogonalLoop=1;jettySize=auto;html=1;entryX=0.5;entryY=0;entryDx=0;entryDy=0;strokeWidth=4;strokeColor=light-dark(#3F6B63,#EDEDED);endArrow=none;endFill=0;" parent="1" source="rP8gSa3ibuYR4lZSBPFA-49" target="rP8gSa3ibuYR4lZSBPFA-35" edge="1">
          <mxGeometry relative="1" as="geometry">
            <Array as="points">
              <mxPoint x="960" y="610" />
              <mxPoint x="540" y="610" />
            </Array>
          </mxGeometry>
        </mxCell>
        <mxCell id="rP8gSa3ibuYR4lZSBPFA-49" value="MLST" style="rounded=1;whiteSpace=wrap;html=1;fillColor=#dae8fc;strokeColor=#6c8ebf;fontStyle=1" parent="1" vertex="1">
          <mxGeometry x="900" y="420" width="120" height="60" as="geometry" />
        </mxCell>
        <mxCell id="-caIupzgePBEDe5vciMs-1" value="Annotated assembly" style="rounded=1;whiteSpace=wrap;html=1;fillColor=#e1d5e7;strokeColor=#9673a6;fontStyle=1" vertex="1" parent="1">
          <mxGeometry x="690" y="228" width="110" height="60" as="geometry" />
        </mxCell>
        <mxCell id="-caIupzgePBEDe5vciMs-5" style="edgeStyle=orthogonalEdgeStyle;rounded=0;orthogonalLoop=1;jettySize=auto;html=1;entryX=0.5;entryY=0;entryDx=0;entryDy=0;endArrow=none;endFill=0;strokeColor=#66CC00;strokeWidth=4;" edge="1" parent="1" source="-caIupzgePBEDe5vciMs-2" target="-caIupzgePBEDe5vciMs-4">
          <mxGeometry relative="1" as="geometry">
            <Array as="points">
              <mxPoint x="745" y="370" />
              <mxPoint x="1110" y="370" />
            </Array>
          </mxGeometry>
        </mxCell>
        <mxCell id="-caIupzgePBEDe5vciMs-2" value="" style="rounded=1;whiteSpace=wrap;html=1;fillColor=none;dashed=1;" vertex="1" parent="1">
          <mxGeometry x="670" y="160" width="150" height="140" as="geometry" />
        </mxCell>
        <mxCell id="-caIupzgePBEDe5vciMs-3" value="Optional Input" style="text;html=1;align=center;verticalAlign=middle;whiteSpace=wrap;rounded=0;fontStyle=1;fontSize=20;" vertex="1" parent="1">
          <mxGeometry x="715" y="186" width="60" height="30" as="geometry" />
        </mxCell>
        <mxCell id="-caIupzgePBEDe5vciMs-8" style="edgeStyle=orthogonalEdgeStyle;rounded=0;orthogonalLoop=1;jettySize=auto;html=1;entryX=0.5;entryY=0;entryDx=0;entryDy=0;endArrow=none;endFill=0;strokeWidth=4;strokeColor=#3F6B63;" edge="1" parent="1" source="-caIupzgePBEDe5vciMs-4" target="rP8gSa3ibuYR4lZSBPFA-35">
          <mxGeometry relative="1" as="geometry">
            <Array as="points">
              <mxPoint x="1110" y="610" />
              <mxPoint x="540" y="610" />
            </Array>
          </mxGeometry>
        </mxCell>
        <mxCell id="-caIupzgePBEDe5vciMs-4" value="One to One variant calling" style="rounded=1;whiteSpace=wrap;html=1;fillColor=#dae8fc;strokeColor=#6c8ebf;fontStyle=1" vertex="1" parent="1">
          <mxGeometry x="1050" y="420" width="120" height="60" as="geometry" />
        </mxCell>
      </root>
    </mxGraphModel>
  </diagram>
</mxfile>
